<svg width="157" height="52" viewBox="0 0 157 52" fill="none" xmlns="http://www.w3.org/2000/svg">
<path d="M62.5 18.5C55.5 28 23.3142 40.0804 8.75374 32.968C-1.18749 28.1122 6.41095 17.4126 17.0814 23.1469C27.7517 28.8811 24.6186 49.384 1 47.4018M1 47.4018L4.17064 43.8072M1 47.4018L5.89923 51.5" stroke="#17494D" stroke-linecap="round"/>
<path d="M37.376 11.776C37.3227 11.776 37.2533 11.7707 37.168 11.76C37.0933 11.7387 37.0187 11.712 36.944 11.68C36.88 11.6373 36.8213 11.5893 36.768 11.536C36.7147 11.472 36.688 11.408 36.688 11.344C36.688 11.2587 36.736 11.1573 36.832 11.04C36.9387 10.912 37.1093 10.816 37.344 10.752C37.664 10.6773 38 10.6347 38.352 10.624C38.704 10.6027 39.056 10.6027 39.408 10.624C39.76 10.6347 40.1067 10.656 40.448 10.688C40.7893 10.7093 41.1093 10.7253 41.408 10.736C41.5787 10.736 41.6907 10.768 41.744 10.832C41.7973 10.896 41.824 10.9707 41.824 11.056C41.824 11.248 41.7387 11.3973 41.568 11.504C41.3973 11.6107 41.2267 11.6587 41.056 11.648C40.8747 11.6373 40.6827 11.632 40.48 11.632C40.288 11.632 40.0853 11.632 39.872 11.632C39.872 11.9307 39.8827 12.2667 39.904 12.64C39.936 13.0027 39.968 13.3707 40 13.744C40.032 14.1173 40.064 14.4747 40.096 14.816C40.1387 15.1573 40.176 15.4453 40.208 15.68C40.2293 15.7653 40.208 15.8453 40.144 15.92C40.0907 15.984 40.0053 16.016 39.888 16.016C39.664 16.016 39.4987 15.8773 39.392 15.6C39.1893 15.0773 39.0453 14.48 38.96 13.808C38.384 14.16 37.8187 14.3787 37.264 14.464C36.7093 14.5493 36.208 14.5333 35.76 14.416C35.3227 14.288 34.9653 14.0747 34.688 13.776C34.4213 13.4667 34.288 13.0933 34.288 12.656C34.288 12.24 34.3627 11.792 34.512 11.312C34.6613 10.832 34.8747 10.368 35.152 9.92C35.4293 9.472 35.7547 9.06667 36.128 8.704C36.512 8.33067 36.9387 8.048 37.408 7.856C37.568 7.81333 37.7173 7.808 37.856 7.84C38.0053 7.86133 38.1387 7.91467 38.256 8C38.384 8.07467 38.496 8.17067 38.592 8.288C38.6987 8.39467 38.7893 8.50133 38.864 8.608C38.9173 8.68267 38.9493 8.76267 38.96 8.848C38.9707 8.93333 38.9387 9.01333 38.864 9.088C38.704 9.20533 38.5653 9.19467 38.448 9.056C38.2667 8.832 38.112 8.69867 37.984 8.656C37.8667 8.60267 37.7013 8.64533 37.488 8.784C37.2747 8.93333 37.04 9.16267 36.784 9.472C36.528 9.77067 36.288 10.1067 36.064 10.48C35.8507 10.8427 35.68 11.2213 35.552 11.616C35.424 12 35.3813 12.3573 35.424 12.688C35.456 12.976 35.616 13.184 35.904 13.312C36.192 13.4293 36.5173 13.4827 36.88 13.472C37.2533 13.4613 37.6213 13.392 37.984 13.264C38.3573 13.136 38.6453 12.9653 38.848 12.752C38.8373 12.5707 38.8267 12.3893 38.816 12.208C38.8053 12.016 38.8 11.8293 38.8 11.648C38.5653 11.6693 38.3307 11.6907 38.096 11.712C37.8613 11.7227 37.6213 11.744 37.376 11.776ZM46.5124 12.24C46.0964 12.4853 45.6484 12.6773 45.1684 12.816C44.6884 12.944 44.171 13.008 43.6164 13.008C43.6377 13.3813 43.7444 13.68 43.9364 13.904C44.1284 14.1173 44.3684 14.2453 44.6564 14.288C44.827 14.3093 44.9977 14.304 45.1684 14.272C45.3497 14.24 45.515 14.192 45.6644 14.128C45.8244 14.0533 45.9684 13.9733 46.0964 13.888C46.2244 13.8027 46.3364 13.7173 46.4324 13.632C46.5284 13.5467 46.6297 13.4933 46.7364 13.472C46.843 13.44 46.923 13.4347 46.9764 13.456C47.1257 13.5093 47.179 13.6693 47.1364 13.936C46.9657 14.2773 46.7204 14.5707 46.4004 14.816C46.0804 15.0507 45.723 15.2 45.3284 15.264C44.987 15.328 44.635 15.312 44.2724 15.216C43.9097 15.12 43.5844 14.9333 43.2964 14.656C43.051 14.4107 42.8644 14.1227 42.7364 13.792C42.6084 13.4613 42.5284 13.12 42.4964 12.768C42.4644 12.4373 42.491 12.1227 42.5764 11.824C42.6724 11.5253 42.8164 11.264 43.0084 11.04C43.2004 10.8053 43.4404 10.6133 43.7284 10.464C44.0164 10.3147 44.3524 10.2293 44.7364 10.208C45.195 10.176 45.611 10.2613 45.9844 10.464C46.3577 10.6667 46.619 10.9493 46.7684 11.312C46.8537 11.5147 46.875 11.6907 46.8324 11.84C46.8004 11.9893 46.6937 12.1227 46.5124 12.24ZM44.6724 11.152C44.5657 11.1733 44.4484 11.2107 44.3204 11.264C44.203 11.3173 44.091 11.3867 43.9844 11.472C43.8884 11.5467 43.7977 11.6373 43.7124 11.744C43.6377 11.84 43.595 11.952 43.5844 12.08C43.7657 12.08 43.963 12.064 44.1764 12.032C44.4004 12 44.6137 11.9627 44.8164 11.92C45.0297 11.8667 45.2217 11.808 45.3924 11.744C45.5737 11.68 45.723 11.6107 45.8404 11.536C45.755 11.3333 45.595 11.2107 45.3604 11.168C45.1364 11.1147 44.907 11.1093 44.6724 11.152ZM51.8818 11.712C52.0844 11.7013 52.2871 11.7493 52.4898 11.856C52.6924 11.9627 52.7938 12.128 52.7938 12.352C52.7724 12.5333 52.6711 12.6507 52.4898 12.704C52.3191 12.7467 52.1804 12.768 52.0738 12.768C51.8604 12.768 51.6311 12.7733 51.3858 12.784C51.1404 12.7947 50.8898 12.8107 50.6338 12.832C50.6124 13.184 50.5911 13.5147 50.5698 13.824C50.5591 14.1333 50.5484 14.4107 50.5378 14.656C50.5271 14.8907 50.5218 15.0827 50.5218 15.232C50.5218 15.3813 50.5271 15.4613 50.5378 15.472C50.7724 15.4293 51.0231 15.36 51.2898 15.264C51.5671 15.1573 51.8391 15.0453 52.1058 14.928C52.3831 14.8 52.6498 14.672 52.9058 14.544C53.1724 14.4053 53.4231 14.2773 53.6578 14.16C53.7644 14.1067 53.8604 14.0907 53.9458 14.112C54.0418 14.1333 54.1004 14.1813 54.1218 14.256C54.1431 14.3733 54.1271 14.5173 54.0738 14.688C54.0204 14.8587 53.9244 15.0133 53.7858 15.152C53.6258 15.28 53.4124 15.4293 53.1458 15.6C52.8898 15.76 52.6124 15.9147 52.3138 16.064C52.0151 16.2133 51.7111 16.3467 51.4018 16.464C51.1031 16.5707 50.8364 16.6347 50.6018 16.656C50.2498 16.688 49.9831 16.592 49.8018 16.368C49.6204 16.144 49.5191 15.8613 49.4978 15.52C49.4764 15.1787 49.4711 14.784 49.4818 14.336C49.5031 13.888 49.5244 13.4133 49.5458 12.912C49.3431 12.9333 49.1458 12.9547 48.9538 12.976C48.7724 12.9867 48.5964 13.0027 48.4258 13.024C48.2871 13.024 48.1324 12.992 47.9618 12.928C47.8018 12.864 47.7218 12.7413 47.7218 12.56C47.7218 12.496 47.7484 12.4107 47.8018 12.304C47.8551 12.1973 47.9724 12.1173 48.1538 12.064C48.5911 11.9893 49.0764 11.9253 49.6098 11.872C49.6418 11.3707 49.6791 10.8853 49.7218 10.416C49.7644 9.94667 49.8018 9.52 49.8338 9.136C49.8444 9.008 49.8818 8.896 49.9457 8.8C50.0098 8.704 50.0791 8.656 50.1538 8.656C50.3351 8.64533 50.5058 8.69333 50.6658 8.8C50.8364 8.896 50.9218 9.008 50.9218 9.136C50.8791 9.49867 50.8364 9.90933 50.7938 10.368C50.7618 10.8267 50.7298 11.296 50.6978 11.776C50.9111 11.7547 51.1138 11.744 51.3058 11.744C51.5084 11.7333 51.7004 11.7227 51.8818 11.712ZM64.2254 10.96C64.2574 11.536 64.2894 12.1173 64.3214 12.704C64.364 13.2907 64.3747 13.872 64.3534 14.448C64.332 15.0133 64.2734 15.568 64.1774 16.112C64.092 16.656 63.9427 17.1787 63.7294 17.68C63.516 18.1707 63.228 18.6293 62.8654 19.056C62.5134 19.4827 62.0654 19.8667 61.5214 20.208C61.436 20.2613 61.34 20.2933 61.2334 20.304C61.1374 20.3147 61.0414 20.3093 60.9454 20.288C60.8494 20.2773 60.764 20.2507 60.6894 20.208C60.6147 20.176 60.5667 20.128 60.5454 20.064C60.5134 19.968 60.5294 19.8613 60.5934 19.744C60.6574 19.6267 60.764 19.504 60.9134 19.376C61.3827 19.024 61.7774 18.6507 62.0974 18.256C62.4174 17.8613 62.6734 17.4347 62.8654 16.976C63.0574 16.5173 63.18 16.0213 63.2334 15.488C63.2974 14.944 63.2974 14.352 63.2334 13.712C63.1054 13.872 62.956 14.0373 62.7854 14.208C62.6147 14.3787 62.4334 14.5333 62.2414 14.672C62.0494 14.8 61.852 14.912 61.6494 15.008C61.4467 15.0933 61.2547 15.136 61.0734 15.136C60.924 15.136 60.7747 15.104 60.6254 15.04C60.476 14.976 60.3267 14.8533 60.1774 14.672C60.0067 14.448 59.852 14.1973 59.7134 13.92C59.5854 13.632 59.4734 13.3547 59.3774 13.088C59.2814 12.8213 59.2014 12.5813 59.1374 12.368C59.084 12.1547 59.052 12.0053 59.0414 11.92C59.02 11.8133 59.02 11.712 59.0414 11.616C59.0627 11.52 59.132 11.4613 59.2494 11.44C59.4094 11.408 59.5587 11.4187 59.6974 11.472C59.836 11.5253 59.932 11.6107 59.9854 11.728C60.028 11.8453 60.0867 12.0267 60.1614 12.272C60.236 12.5173 60.3267 12.7627 60.4334 13.008C60.54 13.2427 60.652 13.4507 60.7694 13.632C60.8974 13.8133 61.0307 13.904 61.1694 13.904C61.3294 13.904 61.516 13.824 61.7294 13.664C61.9534 13.504 62.1667 13.296 62.3694 13.04C62.572 12.784 62.7427 12.5013 62.8814 12.192C63.0307 11.872 63.1054 11.5627 63.1054 11.264C63.1054 11.2 63.116 11.1253 63.1374 11.04C63.1587 10.9547 63.1907 10.8747 63.2334 10.8C63.276 10.7147 63.324 10.6453 63.3774 10.592C63.4414 10.528 63.5054 10.4907 63.5694 10.48C63.74 10.4587 63.8894 10.5067 64.0174 10.624C64.156 10.7307 64.2254 10.8427 64.2254 10.96ZM69.4454 10.416C69.7654 10.5333 70.032 10.7093 70.2454 10.944C70.4694 11.1787 70.64 11.4453 70.7574 11.744C70.8747 12.032 70.9387 12.3307 70.9494 12.64C70.9707 12.9493 70.9387 13.2373 70.8534 13.504C70.736 13.8027 70.5867 14.096 70.4054 14.384C70.224 14.672 70.016 14.928 69.7814 15.152C69.5467 15.376 69.28 15.5573 68.9814 15.696C68.6827 15.8347 68.352 15.904 67.9894 15.904C67.552 15.904 67.184 15.8027 66.8854 15.6C66.5867 15.3973 66.352 15.136 66.1814 14.816C66.0107 14.496 65.8987 14.1333 65.8454 13.728C65.8027 13.3227 65.8134 12.9173 65.8774 12.512C65.92 12.2133 65.9894 11.9253 66.0854 11.648C66.192 11.36 66.3254 11.1093 66.4854 10.896C66.6454 10.672 66.8267 10.4907 67.0294 10.352C67.2427 10.2133 67.4827 10.144 67.7494 10.144C67.8987 10.144 68.0854 10.176 68.3094 10.24C68.5334 10.2933 68.7414 10.3733 68.9334 10.48C69.072 10.352 69.2427 10.3307 69.4454 10.416ZM68.8374 11.584C68.72 11.5093 68.5814 11.4133 68.4214 11.296C68.272 11.168 68.1387 11.104 68.0214 11.104C67.8934 11.104 67.7654 11.1627 67.6374 11.28C67.52 11.3973 67.4134 11.536 67.3174 11.696C67.232 11.8453 67.1574 12 67.0934 12.16C67.0294 12.32 66.9867 12.448 66.9654 12.544C66.9334 12.704 66.912 12.896 66.9014 13.12C66.8907 13.344 66.9067 13.568 66.9494 13.792C66.992 14.0053 67.072 14.2027 67.1894 14.384C67.3174 14.5547 67.504 14.6773 67.7494 14.752C67.8987 14.7947 68.0747 14.7947 68.2774 14.752C68.48 14.6987 68.6774 14.608 68.8694 14.48C69.072 14.352 69.2587 14.1813 69.4294 13.968C69.6107 13.7547 69.7494 13.5093 69.8454 13.232C69.952 12.9227 69.952 12.6027 69.8454 12.272C69.7494 11.9307 69.5467 11.6853 69.2374 11.536C69.1627 11.5893 69.088 11.616 69.0134 11.616C68.9387 11.616 68.88 11.6053 68.8374 11.584ZM73.6101 11.264C73.5461 11.552 73.4821 11.872 73.4181 12.224C73.3541 12.5653 73.3061 12.896 73.2741 13.216C73.2528 13.536 73.2528 13.824 73.2741 14.08C73.3061 14.336 73.3755 14.5173 73.4821 14.624C73.6635 14.656 73.8715 14.5813 74.1061 14.4C74.3408 14.208 74.5701 13.968 74.7941 13.68C75.0181 13.392 75.2208 13.0827 75.4021 12.752C75.5835 12.4107 75.7115 12.112 75.7861 11.856C75.8288 11.728 75.8661 11.5947 75.8981 11.456C75.9301 11.3173 75.9461 11.1733 75.9461 11.024C75.9461 10.9387 75.9995 10.8587 76.1061 10.784C76.2235 10.6987 76.3195 10.6507 76.3941 10.64C76.4475 10.6293 76.5061 10.64 76.5701 10.672C76.6448 10.704 76.7088 10.752 76.7621 10.816C76.8261 10.8693 76.8795 10.9387 76.9221 11.024C76.9755 11.0987 77.0021 11.1787 77.0021 11.264C77.0235 11.584 77.0555 11.936 77.0981 12.32C77.1408 12.704 77.1888 13.088 77.2421 13.472C77.3061 13.856 77.3701 14.2293 77.4341 14.592C77.4981 14.9547 77.5621 15.28 77.6261 15.568C77.6581 15.6853 77.6261 15.8187 77.5301 15.968C77.4341 16.1173 77.3275 16.208 77.2101 16.24C77.1141 16.2613 77.0128 16.2507 76.9061 16.208C76.8101 16.1653 76.7355 16.08 76.6821 15.952C76.6288 15.8027 76.5755 15.6213 76.5221 15.408C76.4795 15.184 76.4368 14.9547 76.3941 14.72C76.3621 14.4747 76.3301 14.2453 76.2981 14.032C76.2661 13.808 76.2448 13.6213 76.2341 13.472C76.0741 13.76 75.8821 14.0533 75.6581 14.352C75.4448 14.64 75.2101 14.9067 74.9541 15.152C74.7088 15.3867 74.4475 15.5733 74.1701 15.712C73.9035 15.84 73.6261 15.888 73.3381 15.856C72.9115 15.8027 72.5861 15.4027 72.3621 14.656C72.2768 14.3573 72.2341 14.0267 72.2341 13.664C72.2448 13.3013 72.2715 12.944 72.3141 12.592C72.3675 12.2293 72.4261 11.888 72.4901 11.568C72.5648 11.248 72.6288 10.9867 72.6821 10.784C72.7035 10.6987 72.7461 10.624 72.8101 10.56C72.8741 10.4853 72.9488 10.4587 73.0341 10.48C73.1941 10.512 73.3381 10.608 73.4661 10.768C73.6048 10.928 73.6528 11.0933 73.6101 11.264ZM83.5806 10.48C83.3886 10.5867 83.186 10.6987 82.9726 10.816C82.77 10.9333 82.562 11.072 82.3486 11.232C82.146 11.3813 81.9486 11.5627 81.7566 11.776C81.5753 11.9787 81.41 12.224 81.2606 12.512C81.0473 12.9173 80.9033 13.3333 80.8286 13.76C80.754 14.176 80.706 14.5867 80.6846 14.992C80.6846 15.184 80.6366 15.3813 80.5406 15.584C80.4553 15.776 80.3326 15.872 80.1726 15.872C79.97 15.872 79.8046 15.7707 79.6766 15.568C79.5593 15.3547 79.4793 15.152 79.4366 14.96C79.2553 14.2027 79.106 13.456 78.9886 12.72C78.8713 11.9733 78.77 11.232 78.6846 10.496C78.6846 10.3467 78.7273 10.2507 78.8126 10.208C78.9086 10.1653 79.0153 10.1493 79.1326 10.16C79.2606 10.1707 79.3833 10.2027 79.5006 10.256C79.618 10.3093 79.6873 10.3947 79.7086 10.512C79.7513 10.9067 79.8046 11.3227 79.8686 11.76C79.9326 12.1867 79.9966 12.5547 80.0606 12.864C80.1033 12.5013 80.2206 12.1493 80.4126 11.808C80.6046 11.4667 80.8393 11.1573 81.1166 10.88C81.4046 10.6027 81.7246 10.368 82.0766 10.176C82.4393 9.984 82.8073 9.856 83.1806 9.792C83.3406 9.77067 83.474 9.77067 83.5806 9.792C83.6873 9.81333 83.762 9.85067 83.8046 9.904C83.8473 9.95733 83.8526 10.0427 83.8206 10.16C83.7993 10.2773 83.7193 10.384 83.5806 10.48ZM92.663 11.712C92.8657 11.7013 93.0683 11.7493 93.271 11.856C93.4737 11.9627 93.575 12.128 93.575 12.352C93.5537 12.5333 93.4523 12.6507 93.271 12.704C93.1003 12.7467 92.9617 12.768 92.855 12.768C92.6417 12.768 92.4123 12.7733 92.167 12.784C91.9217 12.7947 91.671 12.8107 91.415 12.832C91.3937 13.184 91.3723 13.5147 91.351 13.824C91.3403 14.1333 91.3297 14.4107 91.319 14.656C91.3083 14.8907 91.303 15.0827 91.303 15.232C91.303 15.3813 91.3083 15.4613 91.319 15.472C91.5537 15.4293 91.8043 15.36 92.071 15.264C92.3483 15.1573 92.6203 15.0453 92.887 14.928C93.1643 14.8 93.431 14.672 93.687 14.544C93.9537 14.4053 94.2043 14.2773 94.439 14.16C94.5457 14.1067 94.6417 14.0907 94.727 14.112C94.823 14.1333 94.8817 14.1813 94.903 14.256C94.9243 14.3733 94.9083 14.5173 94.855 14.688C94.8017 14.8587 94.7057 15.0133 94.567 15.152C94.407 15.28 94.1937 15.4293 93.927 15.6C93.671 15.76 93.3937 15.9147 93.095 16.064C92.7963 16.2133 92.4923 16.3467 92.183 16.464C91.8843 16.5707 91.6177 16.6347 91.383 16.656C91.031 16.688 90.7643 16.592 90.583 16.368C90.4017 16.144 90.3003 15.8613 90.279 15.52C90.2577 15.1787 90.2523 14.784 90.263 14.336C90.2843 13.888 90.3057 13.4133 90.327 12.912C90.1243 12.9333 89.927 12.9547 89.735 12.976C89.5537 12.9867 89.3777 13.0027 89.207 13.024C89.0683 13.024 88.9137 12.992 88.743 12.928C88.583 12.864 88.503 12.7413 88.503 12.56C88.503 12.496 88.5297 12.4107 88.583 12.304C88.6363 12.1973 88.7537 12.1173 88.935 12.064C89.3723 11.9893 89.8577 11.9253 90.391 11.872C90.423 11.3707 90.4603 10.8853 90.503 10.416C90.5457 9.94667 90.583 9.52 90.615 9.136C90.6257 9.008 90.663 8.896 90.727 8.8C90.791 8.704 90.8603 8.656 90.935 8.656C91.1163 8.64533 91.287 8.69333 91.447 8.8C91.6177 8.896 91.703 9.008 91.703 9.136C91.6603 9.49867 91.6177 9.90933 91.575 10.368C91.543 10.8267 91.511 11.296 91.479 11.776C91.6923 11.7547 91.895 11.744 92.087 11.744C92.2897 11.7333 92.4817 11.7227 92.663 11.712ZM99.4343 12.24C99.0183 12.4853 98.5703 12.6773 98.0903 12.816C97.6103 12.944 97.0929 13.008 96.5383 13.008C96.5596 13.3813 96.6663 13.68 96.8583 13.904C97.0503 14.1173 97.2903 14.2453 97.5783 14.288C97.7489 14.3093 97.9196 14.304 98.0903 14.272C98.2716 14.24 98.4369 14.192 98.5863 14.128C98.7463 14.0533 98.8903 13.9733 99.0182 13.888C99.1463 13.8027 99.2583 13.7173 99.3543 13.632C99.4503 13.5467 99.5516 13.4933 99.6583 13.472C99.7649 13.44 99.8449 13.4347 99.8983 13.456C100.048 13.5093 100.101 13.6693 100.058 13.936C99.8876 14.2773 99.6423 14.5707 99.3223 14.816C99.0023 15.0507 98.6449 15.2 98.2503 15.264C97.9089 15.328 97.5569 15.312 97.1943 15.216C96.8316 15.12 96.5063 14.9333 96.2183 14.656C95.9729 14.4107 95.7863 14.1227 95.6583 13.792C95.5303 13.4613 95.4503 13.12 95.4183 12.768C95.3863 12.4373 95.4129 12.1227 95.4983 11.824C95.5943 11.5253 95.7383 11.264 95.9303 11.04C96.1223 10.8053 96.3623 10.6133 96.6503 10.464C96.9383 10.3147 97.2743 10.2293 97.6583 10.208C98.1169 10.176 98.5329 10.2613 98.9062 10.464C99.2796 10.6667 99.5409 10.9493 99.6903 11.312C99.7756 11.5147 99.7969 11.6907 99.7543 11.84C99.7223 11.9893 99.6156 12.1227 99.4343 12.24ZM97.5943 11.152C97.4876 11.1733 97.3703 11.2107 97.2423 11.264C97.1249 11.3173 97.0129 11.3867 96.9062 11.472C96.8103 11.5467 96.7196 11.6373 96.6343 11.744C96.5596 11.84 96.5169 11.952 96.5063 12.08C96.6876 12.08 96.8849 12.064 97.0983 12.032C97.3223 12 97.5356 11.9627 97.7383 11.92C97.9516 11.8667 98.1436 11.808 98.3143 11.744C98.4956 11.68 98.6449 11.6107 98.7623 11.536C98.6769 11.3333 98.5169 11.2107 98.2823 11.168C98.0583 11.1147 97.8289 11.1093 97.5943 11.152ZM105.172 10.08C105.214 10.3787 105.246 10.6987 105.268 11.04C105.3 11.3707 105.321 11.7067 105.332 12.048C105.353 12.3893 105.364 12.72 105.364 13.04C105.364 13.36 105.358 13.648 105.348 13.904C105.689 14.1387 105.892 14.3467 105.956 14.528C106.03 14.7093 106.041 14.8693 105.988 15.008C105.924 15.2 105.806 15.3013 105.636 15.312C105.476 15.312 105.289 15.2533 105.076 15.136C104.926 15.2427 104.756 15.36 104.564 15.488C104.372 15.6053 104.169 15.7227 103.956 15.84C103.742 15.9467 103.529 16.0427 103.316 16.128C103.102 16.2133 102.905 16.272 102.724 16.304C102.382 16.3573 102.073 16.2933 101.796 16.112C101.529 15.9307 101.348 15.6587 101.252 15.296C101.188 15.0507 101.172 14.8 101.204 14.544C101.236 14.2773 101.316 14.0267 101.444 13.792C101.572 13.5467 101.742 13.328 101.956 13.136C102.18 12.944 102.441 12.7947 102.74 12.688C102.814 12.656 102.916 12.6293 103.044 12.608C103.182 12.5867 103.321 12.5813 103.46 12.592C103.609 12.592 103.758 12.6187 103.908 12.672C104.057 12.7253 104.196 12.816 104.324 12.944C104.324 12.7627 104.318 12.5653 104.308 12.352C104.308 12.128 104.302 11.904 104.292 11.68C104.281 11.456 104.265 11.248 104.244 11.056C104.233 10.8533 104.217 10.6827 104.196 10.544C104.174 10.384 104.11 10.288 104.004 10.256C103.908 10.2133 103.785 10.2187 103.636 10.272C103.38 10.3573 103.081 10.5227 102.74 10.768C102.398 11.0133 102.073 11.2747 101.764 11.552C101.668 11.648 101.556 11.6907 101.428 11.68C101.31 11.6693 101.209 11.6213 101.124 11.536C101.038 11.4507 100.99 11.3547 100.98 11.248C100.969 11.1307 101.012 11.008 101.108 10.88C101.289 10.688 101.492 10.4907 101.716 10.288C101.94 10.0853 102.174 9.904 102.42 9.744C102.665 9.57333 102.916 9.43467 103.172 9.328C103.428 9.22133 103.684 9.16267 103.94 9.152C104.313 9.14133 104.601 9.22667 104.804 9.408C105.006 9.57867 105.129 9.80267 105.172 10.08ZM103.316 13.52C103.177 13.552 103.028 13.6213 102.868 13.728C102.718 13.824 102.58 13.9467 102.452 14.096C102.334 14.2347 102.244 14.3947 102.18 14.576C102.126 14.7467 102.126 14.9173 102.18 15.088C102.201 15.152 102.244 15.2 102.308 15.232C102.382 15.264 102.462 15.2693 102.548 15.248C102.804 15.1947 103.092 15.0933 103.412 14.944C103.742 14.784 104.004 14.6133 104.196 14.432C104.196 14.368 104.164 14.288 104.1 14.192C104.036 14.0853 103.961 13.984 103.876 13.888C103.79 13.7813 103.694 13.6907 103.588 13.616C103.492 13.5413 103.401 13.5093 103.316 13.52ZM107.882 10.832C107.892 11.0027 107.908 11.216 107.93 11.472C107.962 11.7173 107.994 11.9787 108.026 12.256C108.058 12.5227 108.09 12.7893 108.122 13.056C108.164 13.3227 108.202 13.568 108.234 13.792C108.351 13.5573 108.495 13.2693 108.666 12.928C108.836 12.5867 109.012 12.2613 109.194 11.952C109.386 11.632 109.578 11.3653 109.77 11.152C109.972 10.928 110.154 10.816 110.314 10.816C110.484 10.816 110.639 10.9013 110.778 11.072C110.927 11.232 111.055 11.4293 111.162 11.664C111.268 11.8987 111.359 12.1493 111.434 12.416C111.519 12.6827 111.588 12.9173 111.642 13.12C111.684 12.9813 111.738 12.8267 111.802 12.656C111.876 12.4747 111.951 12.2933 112.026 12.112C112.111 11.92 112.202 11.7333 112.298 11.552C112.404 11.3707 112.516 11.2107 112.634 11.072C112.772 10.9227 112.922 10.816 113.082 10.752C113.242 10.6773 113.359 10.64 113.434 10.64C113.53 10.64 113.642 10.672 113.77 10.736C113.908 10.7893 114.047 10.864 114.186 10.96C114.324 11.056 114.452 11.1733 114.57 11.312C114.698 11.44 114.799 11.5733 114.874 11.712C115.023 12 115.14 12.3147 115.226 12.656C115.322 12.9973 115.391 13.3227 115.434 13.632C115.476 13.9413 115.503 14.2187 115.514 14.464C115.535 14.6987 115.551 14.864 115.562 14.96C115.562 15.0987 115.546 15.2053 115.514 15.28C115.482 15.344 115.423 15.3973 115.338 15.44C115.22 15.4933 115.119 15.5147 115.034 15.504C114.948 15.4827 114.879 15.4453 114.826 15.392C114.772 15.3387 114.73 15.28 114.698 15.216C114.666 15.1413 114.644 15.0773 114.634 15.024C114.602 14.7787 114.564 14.528 114.522 14.272C114.49 14.016 114.452 13.7707 114.41 13.536C114.367 13.2907 114.314 13.0667 114.25 12.864C114.196 12.6507 114.138 12.464 114.074 12.304C114.052 12.2613 114.015 12.208 113.962 12.144C113.919 12.0693 113.866 12 113.802 11.936C113.748 11.872 113.695 11.8187 113.642 11.776C113.588 11.7333 113.551 11.7067 113.53 11.696C113.423 11.696 113.311 11.7973 113.194 12C113.076 12.192 112.964 12.4267 112.858 12.704C112.751 12.9813 112.65 13.2747 112.554 13.584C112.468 13.8827 112.404 14.1387 112.362 14.352C112.362 14.6293 112.308 14.8373 112.202 14.976C112.095 15.104 111.983 15.168 111.866 15.168C111.748 15.168 111.62 15.1253 111.482 15.04C111.354 14.944 111.268 14.8373 111.226 14.72C111.162 14.5493 111.092 14.3573 111.018 14.144C110.943 13.9307 110.863 13.712 110.778 13.488C110.703 13.264 110.623 13.0453 110.538 12.832C110.463 12.6187 110.388 12.4267 110.314 12.256C110.164 12.4587 110.015 12.6827 109.866 12.928C109.727 13.1733 109.588 13.424 109.45 13.68C109.322 13.936 109.194 14.192 109.066 14.448C108.948 14.6933 108.836 14.912 108.73 15.104C108.655 15.2213 108.575 15.328 108.49 15.424C108.404 15.5093 108.303 15.552 108.186 15.552C108.1 15.552 108.01 15.5147 107.914 15.44C107.818 15.3547 107.727 15.2533 107.642 15.136C107.556 15.0187 107.476 14.8853 107.402 14.736C107.338 14.5867 107.29 14.4373 107.258 14.288C107.172 13.8293 107.098 13.328 107.034 12.784C106.98 12.2293 106.927 11.6907 106.874 11.168C106.863 10.9867 106.884 10.8213 106.938 10.672C107.002 10.512 107.119 10.4053 107.29 10.352C107.471 10.32 107.61 10.3467 107.706 10.432C107.802 10.5173 107.86 10.6507 107.882 10.832ZM124.976 11.712C125.178 11.7013 125.381 11.7493 125.584 11.856C125.786 11.9627 125.888 12.128 125.888 12.352C125.866 12.5333 125.765 12.6507 125.584 12.704C125.413 12.7467 125.274 12.768 125.168 12.768C124.954 12.768 124.725 12.7733 124.48 12.784C124.234 12.7947 123.984 12.8107 123.728 12.832C123.706 13.184 123.685 13.5147 123.664 13.824C123.653 14.1333 123.642 14.4107 123.632 14.656C123.621 14.8907 123.616 15.0827 123.616 15.232C123.616 15.3813 123.621 15.4613 123.632 15.472C123.866 15.4293 124.117 15.36 124.384 15.264C124.661 15.1573 124.933 15.0453 125.2 14.928C125.477 14.8 125.744 14.672 126 14.544C126.266 14.4053 126.517 14.2773 126.752 14.16C126.858 14.1067 126.954 14.0907 127.04 14.112C127.136 14.1333 127.194 14.1813 127.216 14.256C127.237 14.3733 127.221 14.5173 127.168 14.688C127.114 14.8587 127.018 15.0133 126.88 15.152C126.72 15.28 126.506 15.4293 126.24 15.6C125.984 15.76 125.706 15.9147 125.408 16.064C125.109 16.2133 124.805 16.3467 124.496 16.464C124.197 16.5707 123.93 16.6347 123.696 16.656C123.344 16.688 123.077 16.592 122.896 16.368C122.714 16.144 122.613 15.8613 122.592 15.52C122.57 15.1787 122.565 14.784 122.576 14.336C122.597 13.888 122.618 13.4133 122.64 12.912C122.437 12.9333 122.24 12.9547 122.048 12.976C121.866 12.9867 121.69 13.0027 121.52 13.024C121.381 13.024 121.226 12.992 121.056 12.928C120.896 12.864 120.816 12.7413 120.816 12.56C120.816 12.496 120.842 12.4107 120.896 12.304C120.949 12.1973 121.066 12.1173 121.248 12.064C121.685 11.9893 122.17 11.9253 122.704 11.872C122.736 11.3707 122.773 10.8853 122.816 10.416C122.858 9.94667 122.896 9.52 122.928 9.136C122.938 9.008 122.976 8.896 123.039 8.8C123.104 8.704 123.173 8.656 123.248 8.656C123.429 8.64533 123.6 8.69333 123.76 8.8C123.93 8.896 124.016 9.008 124.016 9.136C123.973 9.49867 123.93 9.90933 123.888 10.368C123.856 10.8267 123.824 11.296 123.792 11.776C124.005 11.7547 124.208 11.744 124.4 11.744C124.602 11.7333 124.794 11.7227 124.976 11.712ZM131.555 10.416C131.875 10.5333 132.141 10.7093 132.355 10.944C132.579 11.1787 132.749 11.4453 132.867 11.744C132.984 12.032 133.048 12.3307 133.059 12.64C133.08 12.9493 133.048 13.2373 132.963 13.504C132.845 13.8027 132.696 14.096 132.515 14.384C132.333 14.672 132.125 14.928 131.891 15.152C131.656 15.376 131.389 15.5573 131.091 15.696C130.792 15.8347 130.461 15.904 130.099 15.904C129.661 15.904 129.293 15.8027 128.995 15.6C128.696 15.3973 128.461 15.136 128.291 14.816C128.12 14.496 128.008 14.1333 127.955 13.728C127.912 13.3227 127.923 12.9173 127.987 12.512C128.029 12.2133 128.099 11.9253 128.195 11.648C128.301 11.36 128.435 11.1093 128.595 10.896C128.755 10.672 128.936 10.4907 129.139 10.352C129.352 10.2133 129.592 10.144 129.859 10.144C130.008 10.144 130.195 10.176 130.419 10.24C130.643 10.2933 130.851 10.3733 131.043 10.48C131.181 10.352 131.352 10.3307 131.555 10.416ZM130.947 11.584C130.829 11.5093 130.691 11.4133 130.531 11.296C130.381 11.168 130.248 11.104 130.131 11.104C130.003 11.104 129.875 11.1627 129.747 11.28C129.629 11.3973 129.523 11.536 129.427 11.696C129.341 11.8453 129.267 12 129.203 12.16C129.139 12.32 129.096 12.448 129.075 12.544C129.043 12.704 129.021 12.896 129.011 13.12C129 13.344 129.016 13.568 129.059 13.792C129.101 14.0053 129.181 14.2027 129.299 14.384C129.427 14.5547 129.613 14.6773 129.859 14.752C130.008 14.7947 130.184 14.7947 130.387 14.752C130.589 14.6987 130.787 14.608 130.979 14.48C131.181 14.352 131.368 14.1813 131.539 13.968C131.72 13.7547 131.859 13.5093 131.955 13.232C132.061 12.9227 132.061 12.6027 131.955 12.272C131.859 11.9307 131.656 11.6853 131.347 11.536C131.272 11.5893 131.197 11.616 131.123 11.616C131.048 11.616 130.989 11.6053 130.947 11.584ZM137.048 7.888C137.016 7.696 137.026 7.52 137.08 7.36C137.144 7.2 137.266 7.10933 137.448 7.088C137.608 7.06667 137.746 7.10933 137.864 7.216C137.992 7.32267 138.072 7.46133 138.104 7.632C138.317 8.85867 138.514 10.08 138.696 11.296C138.888 12.5013 139.058 13.6853 139.208 14.848C139.25 15.1573 139.229 15.3707 139.144 15.488C139.058 15.5947 138.957 15.6747 138.84 15.728C138.712 15.7813 138.589 15.7813 138.472 15.728C138.365 15.6747 138.296 15.5787 138.264 15.44L138.248 15.344L138.184 15.36C137.832 15.488 137.464 15.5627 137.08 15.584C136.696 15.5947 136.328 15.5467 135.976 15.44C135.624 15.3333 135.309 15.1627 135.032 14.928C134.765 14.6827 134.573 14.3733 134.456 14C134.2 13.1787 134.36 12.432 134.936 11.76C135.181 11.4827 135.485 11.232 135.848 11.008C136.21 10.784 136.648 10.608 137.16 10.48L137.448 10.416L137.048 7.888ZM135.432 13.6C135.496 13.856 135.613 14.0533 135.784 14.192C135.954 14.3307 136.157 14.4267 136.392 14.48C136.626 14.5227 136.877 14.528 137.144 14.496C137.41 14.464 137.672 14.4053 137.928 14.32L138.072 14.272L137.624 11.456L137.304 11.536C137.08 11.6 136.84 11.7013 136.584 11.84C136.338 11.968 136.12 12.1227 135.928 12.304C135.736 12.4853 135.586 12.688 135.48 12.912C135.384 13.136 135.368 13.3653 135.432 13.6ZM144.062 10.08C144.105 10.3787 144.137 10.6987 144.158 11.04C144.19 11.3707 144.212 11.7067 144.222 12.048C144.244 12.3893 144.254 12.72 144.254 13.04C144.254 13.36 144.249 13.648 144.238 13.904C144.58 14.1387 144.782 14.3467 144.846 14.528C144.921 14.7093 144.932 14.8693 144.878 15.008C144.814 15.2 144.697 15.3013 144.526 15.312C144.366 15.312 144.18 15.2533 143.966 15.136C143.817 15.2427 143.646 15.36 143.454 15.488C143.262 15.6053 143.06 15.7227 142.846 15.84C142.633 15.9467 142.42 16.0427 142.206 16.128C141.993 16.2133 141.796 16.272 141.614 16.304C141.273 16.3573 140.964 16.2933 140.686 16.112C140.42 15.9307 140.238 15.6587 140.142 15.296C140.078 15.0507 140.062 14.8 140.094 14.544C140.126 14.2773 140.206 14.0267 140.334 13.792C140.462 13.5467 140.633 13.328 140.846 13.136C141.07 12.944 141.332 12.7947 141.63 12.688C141.705 12.656 141.806 12.6293 141.934 12.608C142.073 12.5867 142.212 12.5813 142.35 12.592C142.5 12.592 142.649 12.6187 142.798 12.672C142.948 12.7253 143.086 12.816 143.214 12.944C143.214 12.7627 143.209 12.5653 143.198 12.352C143.198 12.128 143.193 11.904 143.182 11.68C143.172 11.456 143.156 11.248 143.134 11.056C143.124 10.8533 143.108 10.6827 143.086 10.544C143.065 10.384 143.001 10.288 142.894 10.256C142.798 10.2133 142.676 10.2187 142.526 10.272C142.27 10.3573 141.972 10.5227 141.63 10.768C141.289 11.0133 140.964 11.2747 140.654 11.552C140.558 11.648 140.446 11.6907 140.318 11.68C140.201 11.6693 140.1 11.6213 140.014 11.536C139.929 11.4507 139.881 11.3547 139.87 11.248C139.86 11.1307 139.902 11.008 139.998 10.88C140.18 10.688 140.382 10.4907 140.606 10.288C140.83 10.0853 141.065 9.904 141.31 9.744C141.556 9.57333 141.806 9.43467 142.062 9.328C142.318 9.22133 142.574 9.16267 142.83 9.152C143.204 9.14133 143.492 9.22667 143.694 9.408C143.897 9.57867 144.02 9.80267 144.062 10.08ZM142.206 13.52C142.068 13.552 141.918 13.6213 141.758 13.728C141.609 13.824 141.47 13.9467 141.342 14.096C141.225 14.2347 141.134 14.3947 141.07 14.576C141.017 14.7467 141.017 14.9173 141.07 15.088C141.092 15.152 141.134 15.2 141.198 15.232C141.273 15.264 141.353 15.2693 141.438 15.248C141.694 15.1947 141.982 15.0933 142.302 14.944C142.633 14.784 142.894 14.6133 143.086 14.432C143.086 14.368 143.054 14.288 142.99 14.192C142.926 14.0853 142.852 13.984 142.766 13.888C142.681 13.7813 142.585 13.6907 142.478 13.616C142.382 13.5413 142.292 13.5093 142.206 13.52ZM150.772 10.96C150.804 11.536 150.836 12.1173 150.868 12.704C150.911 13.2907 150.922 13.872 150.9 14.448C150.879 15.0133 150.82 15.568 150.724 16.112C150.639 16.656 150.49 17.1787 150.276 17.68C150.063 18.1707 149.775 18.6293 149.412 19.056C149.06 19.4827 148.612 19.8667 148.068 20.208C147.983 20.2613 147.887 20.2933 147.78 20.304C147.684 20.3147 147.588 20.3093 147.492 20.288C147.396 20.2773 147.311 20.2507 147.236 20.208C147.162 20.176 147.114 20.128 147.092 20.064C147.06 19.968 147.076 19.8613 147.14 19.744C147.204 19.6267 147.311 19.504 147.46 19.376C147.93 19.024 148.324 18.6507 148.644 18.256C148.964 17.8613 149.22 17.4347 149.412 16.976C149.604 16.5173 149.727 16.0213 149.78 15.488C149.844 14.944 149.844 14.352 149.78 13.712C149.652 13.872 149.503 14.0373 149.332 14.208C149.162 14.3787 148.98 14.5333 148.788 14.672C148.596 14.8 148.399 14.912 148.196 15.008C147.994 15.0933 147.802 15.136 147.62 15.136C147.471 15.136 147.322 15.104 147.172 15.04C147.023 14.976 146.874 14.8533 146.724 14.672C146.554 14.448 146.399 14.1973 146.26 13.92C146.132 13.632 146.02 13.3547 145.924 13.088C145.828 12.8213 145.748 12.5813 145.684 12.368C145.631 12.1547 145.599 12.0053 145.588 11.92C145.567 11.8133 145.567 11.712 145.588 11.616C145.61 11.52 145.679 11.4613 145.796 11.44C145.956 11.408 146.106 11.4187 146.244 11.472C146.383 11.5253 146.479 11.6107 146.532 11.728C146.575 11.8453 146.634 12.0267 146.708 12.272C146.783 12.5173 146.874 12.7627 146.98 13.008C147.087 13.2427 147.199 13.4507 147.316 13.632C147.444 13.8133 147.578 13.904 147.716 13.904C147.876 13.904 148.063 13.824 148.276 13.664C148.5 13.504 148.714 13.296 148.916 13.04C149.119 12.784 149.29 12.5013 149.428 12.192C149.578 11.872 149.652 11.5627 149.652 11.264C149.652 11.2 149.663 11.1253 149.684 11.04C149.706 10.9547 149.738 10.8747 149.78 10.8C149.823 10.7147 149.871 10.6453 149.924 10.592C149.988 10.528 150.052 10.4907 150.116 10.48C150.287 10.4587 150.436 10.5067 150.564 10.624C150.703 10.7307 150.772 10.8427 150.772 10.96ZM154.84 7.616C154.744 8.08533 154.643 8.54933 154.536 9.008C154.44 9.46667 154.35 9.92533 154.264 10.384C154.179 10.8427 154.115 11.3013 154.072 11.76C154.03 12.2187 154.024 12.6773 154.056 13.136C154.078 13.2533 154.056 13.3653 153.992 13.472C153.939 13.5787 153.875 13.648 153.8 13.68C153.566 13.7653 153.395 13.7067 153.288 13.504C153.16 12.96 153.091 12.4213 153.08 11.888C153.08 11.3547 153.118 10.8267 153.192 10.304C153.278 9.78133 153.384 9.264 153.512 8.752C153.651 8.22933 153.79 7.712 153.928 7.2C153.982 6.98667 154.067 6.86933 154.184 6.848C154.302 6.82667 154.414 6.83733 154.52 6.88C154.68 6.93333 154.782 7.04 154.824 7.2C154.867 7.36 154.872 7.49867 154.84 7.616ZM154.2 16.224C154.2 16.3413 154.184 16.5013 154.152 16.704C154.131 16.896 154.088 17.0773 154.024 17.248C153.971 17.4187 153.891 17.5573 153.784 17.664C153.688 17.7707 153.566 17.792 153.416 17.728C153.331 17.6747 153.246 17.5733 153.16 17.424C153.075 17.2747 153.038 17.136 153.048 17.008C153.07 16.752 153.123 16.5013 153.208 16.256C153.294 16.0107 153.406 15.8613 153.544 15.808C153.608 15.7867 153.678 15.7867 153.752 15.808C153.838 15.8293 153.912 15.8667 153.976 15.92C154.04 15.9627 154.094 16.016 154.136 16.08C154.179 16.1333 154.2 16.1813 154.2 16.224Z" fill="#17494D"/>
</svg>
