<svg width="473" height="599" viewBox="0 0 473 599" fill="none" xmlns="http://www.w3.org/2000/svg">
<path d="M465.155 494.205L466.619 500.509L466.903 503.662L465.122 519.609L466.617 544.432L466.87 547.071L467.944 552.278L471.61 562.816L471.795 563.867L471.979 564.92L471.052 566.606L469.071 568.587L466.68 570.068L464.616 570.234L463.405 568.93L462.678 566.783L461.899 562.584L459.918 558.406L457.285 557.837L453.893 558.54L449.584 558.143L447.257 557.38L446.172 556.805L445.308 555.945L444.601 554.124L444.39 552.384L443.958 550.68L442.61 548.977L439.344 547.929L435.457 552.384L432.233 552.335L430.538 552.588L429.4 554.629L428.02 559.054L425.175 562.969L424.628 564.784L424.607 566.818L425.334 570.945L425.208 572.974L424.639 576.047L424.292 577.672L424.881 579.512L425.651 580.944L428.042 583.078L428.716 584.623L429.317 586.226L433.484 589.554L432.811 593.554L432.662 597.849L433.11 602.083L434.18 605.89L437.1 610.152L437.589 611.231L437.814 613.174L439.68 618.622L440.427 619.953L440.734 621.048L440.502 622.16L439.639 622.957L439.009 622.616L438.486 621.867L437.963 621.454L437.141 620.52L434.803 615.153L427.835 603.065L426.118 596.342L425.446 595.288L420.129 590.967L419.134 589.626L417.475 586.57L416.33 584.916L411.81 579.84L411.088 578.16L410.938 575.972L411.784 569.264L411.602 566.792L411.072 564.81L405.415 554.97L404.47 553.98L403.341 553.37L402.355 551.877L401.666 550.019L401.335 548.297H401.965L402.181 548.649L402.264 548.712L402.396 548.729L402.727 548.949L403.491 547.087L404.719 545.131L406.361 544.023L408.285 544.687L407.007 543.524L405.987 541.618L405.414 539.455L405.44 537.52L406.311 536.356L407.73 535.085L408.716 533.632L408.285 531.895L409.819 530.128L410.109 529.353L409.694 528.344L410.309 527.361L410.118 526.467L409.372 525.777L408.783 525.565L409.065 524.48L409.446 523.543V522.641L409.048 521.814L408.898 522.666L408.716 522.989L408.285 523.302H409.049L407.722 526.88L406.537 528.38L404.819 528.347L404.023 527.105L404.305 525.474L404.852 523.829L404.819 522.591H404.123L403.6 524.38L402.654 524.244L401.733 523.006L401.335 521.488L401.666 519.157L402.579 518.584L403.89 518.309L405.441 516.902L404.818 516.189L403.126 517.376L402.413 516.503L403.051 514.934L405.44 513.993V513.271L400.72 513.627L398.721 514.272L397.153 514.696L396.191 513.827L396.357 511.345L397.427 509.114L399.26 508.232L398.472 507.162L398.87 506.178L399.965 505.346L401.334 504.735V503.954L400.264 504.072L399.318 504.531L398.522 505.27L397.867 506.22L397.319 504.922L396.839 502.765L396.391 498.613L396.084 497.62L394.641 496.027L394.317 495.084V491.135L391.704 480.464L391.53 476.867L392.592 477.288L392.924 477.517L392.401 476.135L391.505 476.331L390.767 477.667V479.661H390.137L389.043 477.863L388.047 475.58L387.401 473.033L387.301 470.451L387.799 468.856L388.711 467.835L389.615 467.043L390.138 466.098L389.989 464.379L389.118 463.519L388.032 463.047L387.301 462.464L386.978 459.854L388.778 458.607L391.415 457.866L393.621 456.751L394.733 454.886L397.089 447.462L396.458 447.535L395.015 447.462L394.79 449.042L393.795 453.08L393.97 453.889L393.256 454.439L392.103 455.64L390.561 456.861L388.761 457.466L388.445 457.99L385.932 459.271L385.194 460.319L385.46 461.978L386.539 462.77L387.833 463.23L388.761 463.889L388.72 465.906L386.985 467.183L384.762 467.009L383.186 464.668L381.427 452.706L380.332 448.893L373.439 435.953L360.4 418.576L357.166 417.329L355.366 415.749L353.932 413.836L353.136 412.192L352.34 412.623L351.667 412.115L351.219 411.025L351.046 409.709L351.253 408.423L352.216 407.137L352.847 404.091L354.48 399.654L354.53 397.136H353.775L353.427 399.094L351.668 404.603L350.656 405.736L348.409 406.402L347.015 408.116L346.492 410.444L346.808 412.972L345.274 411.861L343.781 411.19L342.081 410.845L339.849 410.755V411.536L341.989 412.138L342.262 413.132L341.241 414.054L339.458 414.468L334.174 414.575L336.015 415.134L337.666 415.865L338.453 416.488L338.163 418.008L336.887 418.9L335.169 419.314L333.527 419.417L333.428 419.306L330.3 418.682L329.853 418.793L329.487 418.776L329.347 418.375L329.396 416.777L329.347 416.487L328.103 416.056L326.56 415.873L323.076 415.83V416.488L324.37 417.595L324.843 418.734L324.121 419.486L321.757 419.418V420.195L327.662 421.641L330.366 422.729L331.495 424.816L331.146 426.174L330.333 427.645L329.157 431.675L327.098 433.584L325.2 435.049L322.531 435.761L317.514 436.745L313.627 434.922L311.627 432.079L310.508 427.596L309.496 426.354L308.401 424.498L307.257 421.31L306.402 420.384L304.918 420.849L306.445 422.338L307.821 425.232L308.634 428.287L308.402 430.292L306.328 431.27L303.019 431.786L299.941 431.633L298.597 430.579L297.968 429.133L295.181 427.226L294.551 426.258L294.22 425.306L292.727 423.386L291.948 420.415L290.828 419.958L287.817 420.197L287.344 419.6L286.141 415.835L285.353 415.216L284.417 414.793L283.637 414.272L282.965 412.397L281.522 410.419L281.199 409.711L281.05 408.604L279.806 405.738L279.06 402.157L278.238 400.324L277.317 398.763L276.571 397.015L276.272 394.625L275.742 393.347L267.862 383.105L266.767 380.331L266.535 379.124L266.544 377.99L267.714 371.545L267.863 367.232L268.443 364.91L269.588 362.862L270.416 360.924L270.001 358.935H270.631L268.955 355.501L268.881 354.098L270.001 353.181L269.653 353.078L269.355 353.07L269.188 352.928L269.238 352.393L266.666 353.259L264.925 351.05L263.947 347.889L263.681 345.915L263.797 339.717L264.66 337.313L267.165 335.832L273.105 335.862L275.493 334.608L275.575 330.725L275.103 329.282L274.531 328.681L273.535 328.577L271.744 328.619L271.463 329.057L272.367 330.028L274.183 331.437L273.487 333.602L271.696 332.609L270.575 332.51L268.609 333.602L266.022 334.427L264.562 335.372L264.114 334.994L262.563 330.828L262.961 327.838L264.603 325.38L267.166 324.232L266.535 323.511L266.353 323.945L266.345 324.052L266.221 324.078L265.773 324.232L264.994 323.231L263.311 323.411L259.57 324.89L260.151 326.369L259.636 327.263L258.392 327.701L256.791 327.838L255.074 327.701L253.755 327.263L251.167 325.677L251.989 327.315L253.416 328.389L255.108 329.008L256.791 329.283L260.581 329.42L261.411 330.266L261.628 339.727L261.32 340.877L260.524 341.512L259.687 343.045L259.056 344.912L258.874 346.573L255.448 345.169L235.483 341.474L231.609 340.113L228.133 337.923L228.034 339.143L228.996 340.285L242.217 347.898L243.809 349.159L244.755 350.471L245.393 351.776L246.289 352.775L249.523 353.448L252.352 354.808L253.944 355.344L260.621 356.056L261.459 356.751L264.444 361.089L264.875 362.821L265.249 366.541L264.825 365.941L264.046 364.904L263.109 363.969L263.607 366.017L264.063 372.242L263.682 374.747L260.911 378.511L260.265 379.128L259.053 378.845L258.805 377.967L259.278 376.923L260.265 376.186V375.467H259.568L258.432 376.932L257.312 377.976L255.902 378.678L253.944 379.128L250.12 379.025L248.851 379.5L248.37 381.246L248.494 381.918L248.925 384.211L250.343 387.519L252.251 390.667L254.291 393.195L254.523 393.729L254.35 394.952L254.64 395.705L254.897 395.824L255.295 395.85L255.718 395.97L256.034 396.355L257.245 397.26L257.66 397.978L257.137 398.966L255.619 399.697L254.101 399.542L252.608 399.17L251.165 399.285L249.216 401.632L248.286 405.132L247.059 408.054L244.198 408.678L245.831 410.04L245.416 411.45L244.039 411.992L242.803 410.758L240.588 412.168L242.081 413.231L244.993 414.153L246.976 415.118L247.93 413.192L249.671 413.487L251.438 414.939L252.55 416.494L252.857 417.574L253.246 420.853L254.49 424.233L254.871 427.898L254.597 428.657L253.593 429.903L252.698 430.377L250.375 430.705L249.421 431.272L248.832 432.854L247.68 438.666L247.671 440.247L247.97 439.148L248.599 438.516L249.296 438.047L249.768 437.382L249.859 436.286L249.544 434.219L249.768 433.088L250.772 431.659L252.282 430.806L254.098 430.543L256.03 430.876L259.664 433.05L261.505 436.052L262.716 439.535L264.442 443.167L262.882 442.668L262.359 442.386L262.384 444.756L263.114 446.669L265.138 450.38L265.645 452.497L265.736 454.669L265.138 458.961L261.887 466.98L259.482 470.626L257.483 471.094L254.771 472.515L253.692 473.413L253.244 474.344L253.004 475.761L252.381 477.394L249.461 482.27L248.483 483.434L247.322 483.935L245.978 483.638L244.245 482.898L242.752 481.979L242.105 481.155L242.694 478.567L245.166 473.587L245.59 471.094L244.404 468.126L244.197 466.751L244.819 463.47L244.495 462.167L242.803 461.75L243.251 463.92L242.23 468.55L242.455 470.056L243.292 470.745L243.948 471.026L244.454 471.426L244.835 472.465L244.694 473.273L244.221 473.987L243.44 474.735L243.3 474.914L243.092 475.092L242.893 475.45L242.627 476.934L242.229 476.887L241.732 476.648L241.351 476.869L241.052 477.916L240.712 481.155L240.314 482.49L239.891 483.391L238.024 486.094L236.73 487.504L236.473 487.895L236.034 489.731L234.068 493.536L233.637 495.444L233.189 499.419L232.244 503.315L231.448 505.353L230.411 506.748L224.796 511.33L223.386 512.255L221.454 512.633L219.372 512.289L215.54 510.775L213.731 510.432L212.089 509.579L211.642 507.86L212.338 506.536L214.08 506.867L213.316 505.407L213.913 504.38L214.934 503.421L215.481 502.182L215.308 501.291L215.035 500.706L214.985 500.056L215.483 498.974L214.462 500.29L212.654 504.539L211.676 505.452L210.705 505.757L209.435 507.165L208.514 507.59L207.643 507.416L206.316 506.359L205.105 506.223L205.802 503.43L206.075 497.764L207.195 495.407L208.14 494.651L209.318 493.971L210.479 493.126L211.358 491.848L211.847 490.259L212.046 488.951L212.394 487.684L213.381 486.206L217.569 482.576L218.066 481.964L218.804 480.706L219.335 480.047L220.23 479.651L221.143 479.881L221.947 480.297L222.495 480.433L224.643 479L226.227 476.657L226.982 473.876L226.674 471.094L224.858 475.606L223.588 477.983L222.145 479.012L219.409 479.356L217.725 480.3L211.671 486.527L210.949 487.59L210.127 489.862L208.833 491.787L208.518 492.526L207.953 493.019L206.493 493.274L205.481 493.112L202.239 491.847L202.827 490.398L202.935 488.806L203.707 487.569L204.669 486.775L205.565 486.342L206.22 485.627L206.495 484.003L206.146 480.888L206.594 479.728L206.967 478.164L207.921 477.134L209.057 476.649L210.01 475.99L210.599 474.736L207.969 475.634L206.692 477.449L205.1 482.575L204.179 483.739L201.442 486.331L200.854 487.211L201.103 491.93L200.854 493.272L199.327 494.525L197.486 493.863L195.927 492.108L195.297 490.065L195.098 489.033L194.202 486.662L193.904 485.43L193.679 477.711L192.734 473.39L192.509 470.771L192.243 469.758L190.941 467.775L190.418 466.75L190.037 465.384L189.905 464.286L190.054 463.162L190.419 461.749L192.435 456.969L200.854 445.315L201.418 444.007L201.792 442.737L202.398 441.585L203.642 440.605L200.855 442.386L200.524 442.715L197.255 445.898L195.845 447.59L195.298 449.247L194.502 450.908L192.735 450.426L189.657 448.105L189.856 450.299L190.436 452.083L190.802 453.872L190.42 456.099L186.174 463.888L187.41 466.109L188.48 469.823L189.658 476.866L189.799 480.501L189.501 482.273L188.646 483.612L186.937 484.492L185.445 484.351L183.877 483.931H181.945V484.712L184.101 485.596L185.893 486.701L187.112 488.328L187.569 490.775L187.436 491.773L186.913 493.65L186.939 494.755L187.354 495.715L188.731 497.782L189.553 499.769L190.548 500.944L191.121 502.291L190.424 503.95L189.695 504.222L187.422 504.646L184.8 506.861L184.227 507.562L184.028 508.046L183.68 508.475L182.709 509.001L180.843 509.714L179.757 509.854L179.292 509.357L178.753 507.856L177.483 508.153L175.957 509.142L174.672 509.715L172.971 509.596L171.063 509.215L169.322 508.553L168.094 507.586L167.646 506.776L167.265 505.668L167.207 504.51L168.301 502.689L168.094 501.696L166.634 499.684L163.781 505.448L164.942 507.366L166.917 509.984L169.19 512.288L171.23 513.272L172.108 514.312L171.014 516.36L168.799 517.852L166.286 517.225L165.057 516.479L163.921 516.449L161.384 516.903L161.111 517.488L162.231 520.269L162.455 521.168L160.515 523.067L158.35 521.761L155.438 517.547L155.62 515.706L154.443 511.397L154.742 509.005L155.563 507.664L157.454 505.56L158.226 503.956L158.55 502.233L158.127 494.675L158.923 488.61L159.47 486.473L161.908 482.342L162.455 480.047L162.107 477.824L161.211 475.639L159.951 473.691L158.573 472.139L158.506 470.684L161.634 466.766L162.455 465.03L162.572 462.795L162.929 460.638L163.576 458.595L164.546 456.755L163.426 457.564L162.481 458.889L161.079 461.754L159.894 462.903L159.521 463.818L160.442 466.231L159.845 467.137L157.879 468.566L156.668 470.429L156.784 471.803L158.924 475.379L159.438 476.676L159.687 477.68L159.745 480.048L159.505 481.297L158.46 483.299L158.228 484.332L157.415 490.989L156.901 492.493L155.01 493.471L154.181 491.857L154.049 487.214L154.323 486.118L155.376 483.955L155.443 482.578L150.849 472.195L150.583 470.059L151.063 465.379L150.947 463.294L149.943 461.039H149.188L148.342 467.95L149.188 481.159H149.943L150.034 479.688L150.515 478.341L151.062 477.58L151.335 477.882L151.476 478.788L151.833 480.064L152.356 481.327L152.978 482.224L153.526 483.418L153.435 484.934L152.589 487.574L152.083 488.045L150.83 488.266L150.582 488.614L150.681 489.37L150.913 489.872L151.335 490.428L151.709 491.605L152.953 494.162L153.699 495.092L153.881 495.81L152.936 501.359L151.891 502.569L150.548 503.525L149.187 504.743L148.051 506.567L147.952 508.044L148.3 509.757L148.549 512.281L148.175 514.686L147.197 516.658L145.819 518.299L142.12 521.352L140.976 521.454L138.371 518.647L137.824 517.095L137.675 514.424L137.99 509.724L138.538 507.824L139.865 504.624L140.138 502.188L139.699 500.087L137.8 496.567L137.352 494.767H136.597L135.959 496.363L136.249 497.705L136.904 499.013L137.352 500.47V502.138L136.978 503.094L135.261 504.744L134.216 506L133.578 507.044L131.902 510.905L131.404 511.762L130.89 511.796L130.325 510.438H129.637L129.687 513.073L130.732 517.14L130.325 519.688L128.592 523.287L128.891 524.457L131.023 525.44L129.837 526.746L128.087 527.954L126.047 528.797L124.065 529.001L122.149 527.942L121.535 526.009L121.925 524.14L122.978 523.314L123.194 522.182L120.034 513.655L119.885 512.772L119.826 511.543L119.387 511.114L118.442 511.695L117.471 512.722L117.047 513.646L116.45 514.113L115.098 513.76L112.866 512.64L111.813 511.749L111.365 511.087L108.843 502.583L108.627 500.826L108.893 498.673L109.979 494.299L110.02 491.853L109.283 489.665L107.018 486.708L106.545 485.081L107.167 480.282L106.852 478.313L106.882 478.249L108.662 476.121L108.462 473.594L107.904 471.525L107.046 469.775L102.596 464.22L101.627 462.031L103.097 461.069L101.406 458.285L100.853 457.003L99.6356 451.432L99.6247 450.41L99.899 449.334L100.774 447.954L100.952 447.131L100.531 444.696L98.6563 440.539L97.74 436.662L96.5227 435.731L93.3577 434.545L95.6332 433.094L96.2545 430.683L95.8067 427.861L94.8213 425.179L93.5628 422.963L93.1465 420.632L92.7994 419.283L91.5822 416.252L91.3346 414.343L92.03 412.914L93.178 411.588L94.263 409.983L94.706 408.583L95.1065 406.544L95.2752 404.503L95.0434 403.086L93.8795 402.025L91.03 401.151L89.8394 399.765L87.6695 394.813L86.6052 393.169L84.6719 390.839L84.2666 389.658L84.3297 387.602L85.2775 384.608L85.5408 379.213L86.9159 376.568L92.4511 370.928L95.1793 368.77L96.0798 367.775L96.6016 366.653L96.6174 365.785L96.0325 365.288L93.2509 365.383L92.3455 365.165L91.4875 364.76L84.3503 362.403L82.6233 362.071L81.286 362.273L80.4122 362.83L79.7216 363.44L78.9049 363.802L77.8357 363.792L71.1414 361.729L69.7725 360.555L68.7555 358.527L68.6875 356.241L69.6147 354.207L72.0844 350.445L77.0408 337.896L77.2726 335.622L75.9133 334.57L74.576 335.57L73.3745 337.331L72.1002 337.808L70.5941 334.95L69.4885 334.461L66.5018 332.509L64.7846 330.739L62.3986 326.644L60.8707 325.068L60.06 324.904L58.0479 325.117L57.0151 324.694L56.0248 323.671L55.9617 322.975L56.2991 322.173L56.4993 320.848L55.9775 320.453L54.9289 320.248L53.9702 319.789L53.8221 318.607L55.9714 308.983L55.8245 308.002L55.0867 306.401L55.1073 305.39L55.6134 304.259L57.1098 302.015L57.6365 300.785L57.6474 299.823L57.4265 298.877L57.3161 297.917L57.6474 296.908L59.2748 295.664L61.2712 295.566L63.3889 295.747L65.3429 295.36L66.7069 294.332L70.5735 290.71L71.5638 289.498L71.8696 287.594L71.5856 285.342L70.9752 283.314L70.2846 282.071L71.5334 280.015L72.7191 278.509L72.6718 277.504L70.2179 276.945L69.9024 275.608L67.9849 274.022L67.4848 272.811L67.6171 271.836L68.2701 269.628L68.3914 268.395L67.912 266.235L67.8914 265.213L68.4703 263.914L69.4921 262.982L71.747 262.176L73.332 261.449L73.349 261.441L73.6755 260.531L74.8551 258.869L75.2022 257.895L74.9655 257.5L74.707 255.758L74.5116 255.317L73.9485 251.117L71.6099 248.109L68.2701 246.147L66.0637 245.683L64.9788 248.115L63.4508 250.37L61.202 250.502L56.1716 248.875L49.5721 248.581L47.2334 248.104L39.6812 242.372L12.9249 228.996L9.98551 228.386L9.78042 227.644L8.84837 226.099L7.95272 224.98L7.54738 224.585L7.44181 224.052V218.502L7.1202 217.864L5.63475 216.395L4.61289 214.219L2.94903 213.544L1 212.995L1.54732 209.786L2.38956 207.859L3.71726 206.007L4.20149 201.343L5.32893 200.897L6.62505 200.683L7.34107 199.694L7.47821 198.248L7.77312 196.956L8.4418 196.213L9.76342 196.428L10.7428 194.491L12.1542 193.157L13.1445 191.791L12.8496 189.773L11.5122 186.075L11.0438 185.155L10.4904 184.594V184.125L15.5462 181.489L17.4322 180.863L19.4128 181.043L21.0766 182.127L22.5087 183.927L23.431 186.009L23.5208 187.947L24.7539 188.016L29.0306 189.111L30.743 189.26L31.6751 188.579L33.5234 185.436L37.0683 181.01L38.311 178.538L38.6326 175.727L40.987 172.904L42.1776 169.748L43.0307 162.738L42.7565 156.709L43.7577 154.924L47.2334 154.349L48.9082 154.774L52.1 155.984L54.8391 156.698L55.3136 156.913L55.793 156.953L56.9471 156.688L57.6631 156.235L58.9277 154.88L59.844 154.56L63.4253 154.653L66.5176 155.228L72.6269 157.411L78.7107 158.002L79.5371 157.4L80.5748 155.095L81.2483 154.332L82.059 154.166L82.7229 154.376L83.3976 154.751L90.371 157.106L92.973 157.26L91.4924 154.983L93.3516 154.602L93.6465 153.54L93.3625 152.119L93.473 150.676L94.3577 149.526L98.1866 146.844L98.9026 145.811L99.166 144.732L98.939 143.714L98.1854 142.841L93.2084 143.073L90.8018 142.758L89.0955 141.081L88.4899 140.611L86.3564 140.478L85.3139 140.213L84.5979 139.61L82.1852 136.738L81.7483 135.587L81.6695 134.552L81.3746 133.655L80.2786 132.886L80.2471 132.232L81.9801 128.428L81.8381 126.134L80.911 124.733L79.6148 123.63L78.3769 122.211L77.4971 121.485L74.4 120.327L74.4631 122.211L73.4521 122.66L72.4837 122.616L71.5674 122.466L70.7567 122.588L69.6827 123.453L68.8089 124.494L67.8926 125.353L66.6972 125.675L64.5637 125.199L61.2773 123.154L59.2809 122.223L54.935 122.073L52.8282 121.674L51.8269 120.699L51.0417 119.153L48.2711 117.124L47.2334 114.984L43.3985 113.132L41.9713 111.801L41.5283 105.194L38.8317 102.298L31.4214 97.5187L25.2697 90.6661L21.9626 89.0273L17.4019 90.2996L15.7222 91.2435L13.7052 92.0929L11.7986 92.1816L10.4928 90.854L9.79255 88.8095L9.31318 87.8933L7.70638 86.1542V85.1873L7.84835 84.2538L7.14204 82.6196L6.3629 77.8553L6.66873 77.3551L7.20637 77.0163L7.75369 76.2326L9.63963 70.1245L11.6093 66.5242L14.1749 64.5927L14.8751 62.5332L14.7222 61.3531L14.1688 60.7515L13.5365 60.3724L13.1676 59.8376L13.0414 58.7739L13.1894 58.2172L13.505 57.6376L14.6421 54.1225L15.4747 52.8295L18.8509 50.7619L19.7405 50.0324L20.3837 49.2407L21.0888 48.5492L22.2004 48.1309L24.2915 47.7021L30.243 45.751L32.0343 44.6919L32.8765 43.0865L32.7127 39.1554L33.0865 37.5823L34.6241 35.5125L36.1617 34.1676L40.9543 31.2772L41.7079 30.3564L42.1982 29.3629L42.7771 28.8996L43.8305 29.5588L44.5041 29.8493L45.4567 29.8942L46.4677 29.7824L47.231 29.5923L49.4956 29.9276L49.2747 27.1871L47.231 21.3567L45.7771 18.9942L43.0696 17.776L37.1921 16.6754L34.811 15.6751L34.095 15.7362L33.737 16.4737L33.453 18.9654L32.9845 19.6073L31.652 19.2224L30.8935 17.7864L30.7673 16.0035L31.3255 14.5618L32.6532 12.4217L34.7394 5.49417L35.4979 3.93373L36.7467 1.93074L38.038 0.625L38.9652 1.22313L39.1229 3.22035L39.0283 5.51377L39.3232 7.64468L40.6606 9.11523L44.2735 10.149L45.896 10.8762L47.2237 12.3744L48.498 13.369L49.5939 14.548L50.4264 15.3305L52.4653 16.6547L54.8039 17.5985L55.6413 17.6988L57.8003 17.6654L59.0224 18.1851L59.7069 19.2408L60.2858 20.459L61.0964 21.4697L62.202 22.1508L63.287 22.6314L65.6572 23.1673L65.2142 24.0385L65.003 24.9766L65.2457 25.7188L66.1462 26.0035L66.9047 26.3435L66.7943 28.2416L67.3999 29.0448L69.7337 30.172L71.1026 31.2161L71.3611 32.5495L70.4181 34.5582L69.1062 35.6185L65.3513 37.4256L64.5928 38.1897L66.3841 39.4389L75.0007 36.4103L78.6767 37.7656L79.4935 39.4228L80.1525 41.2518L81.1209 42.7857L82.8382 43.5267L84.4498 42.9355L85.9778 39.3663L88.0324 38.0445L90.7764 38.5239L95.274 42.8399L98.1757 43.7653L102.673 42.6728L104.738 41.3013L104.19 39.2937L103.09 38.9641L101.872 38.9249L101.134 38.2219L101.503 35.9066L100.549 36.5151L99.6381 36.7433L98.8274 36.4817L98.1745 35.6058L97.2267 32.5253L94.6987 31.2691L91.7654 30.3149L89.6695 28.1713L89.6064 26.3342L90.4438 24.3128L91.7181 22.5034L93.0033 21.3245L94.6781 20.5373L95.6101 20.8059L96.5422 21.7105L98.1745 22.8665L99.3177 23.4254L100.871 25.1057L101.798 25.8594L102.91 26.2835L105.148 26.8413L106.054 27.5397L106.529 28.8351L106.202 29.7732L106.318 30.5212L108.014 31.2126L110.448 31.8707L111.179 32.6463L111.243 34.1192L110.353 34.5709L108.878 33.9129L107.71 34.0581L107.768 36.9588L108.426 38.7221L110.465 41.9629L111.228 43.6743L112.076 50.218L112.84 52.1461L114.104 53.5336L120.857 56.341L122.363 57.2826L123.427 58.6195L124.059 60.7077L124.913 61.6873L128.516 63.2627L130.954 65.9906L132.813 67.2146L134.868 68.0996L136.516 68.2829L138.175 67.3586L139.397 66.296L140.587 66.2788L142.136 68.4765L142.611 68.677L143.106 68.7381L143.621 68.677L144.148 68.4938L144.153 68.4823L149.679 68.0259L150.19 68.0812L150.7 68.231L151.18 68.4765L152.618 70.8909L153.508 72.0261L154.55 72.5597L155.903 72.282L156.657 71.2977L156.936 69.9344L156.821 68.4765L157.685 65.5492L162.141 61.9916L163.005 60.1649L162.242 58.8223L160.909 58.7831L159.498 59.039L158.487 58.5607L158.476 57.2791L159.593 56.3883L161.088 55.6645L162.278 54.935L160.398 54.7011L158.728 53.9266L158.054 52.5782L159.139 50.6225L159.802 50.0428L160.498 49.7086L161.236 49.6533L163.316 50.2491L163.406 49.7201L162.71 48.472L162.499 45.2001L163.205 44.2966L165.407 43.5994L167.25 43.9393L167.798 45.539L167.742 47.7701L167.682 50.12L167.536 50.5603L167.778 50.7827L169.021 51.3347L169.769 51.4407L171.801 51.2621L172.707 51.329L173.924 52.259L174.52 53.8632L174.973 55.6403L175.783 57.1051L177.121 58.9041L177.253 60.2352L177.005 61.5824L177.158 63.4644L177.732 64.4498L179.828 67.0544L180.598 68.4684L181.156 69.236L181.777 69.4526L182.441 69.1634L183.136 68.4673H183.168L183.184 68.4558L183.357 68.367L183.526 68.3336L183.673 68.3555L183.789 68.4673L185.153 70.1591L184.843 71.6331L183.411 72.7625L181.419 73.4194L183.326 74.5316L184.927 74.671L185.737 75.2887L185.294 77.8472L180.902 85.2518L180.513 87.9083L182.388 97.5556L184.7 102.989L185.737 107.212L184.789 114.755L184.6 122.836L183.106 128.157L182.304 131.012L182.155 132.081L181.725 135.159L182.083 138.813L182.984 142.619L184.174 144.71L185.759 144.981L189.388 143.576L193.253 143.432L215.875 152.563L231.86 155.935L239.781 159.151L243.363 159.256L253.717 157.139L262.07 157.863L266.158 156.857L267.601 156.896L268.76 157.244L270.961 158.211L274.743 158.83L275.628 158.769L276.207 158.443L277.291 157.343L277.829 157.072L279.461 157.272L280.778 158.023L282.052 158.941L283.538 159.642L286.392 159.974L297.894 158.47L298.77 158.355L302.004 157.244L318.332 154.74L323.989 154.928L325.242 154.728L327.466 153.629L328.561 153.595L333.48 156.049L348.554 160.436L352.547 160.868L353.537 160.723L355.592 160.093L356.688 159.949L357.889 159.662L359.596 158.331L360.471 157.961L362.24 158.082L362.988 158.905L363.672 160.121L365.304 161.402L367.031 161.806L369.633 161.922L372.014 161.585L373.057 160.591L373.584 158.867L374.754 158.828L376.07 159.452L376.976 159.717L377.692 159.165L378.302 157.872L378.955 157.281L380.504 157.077L385.433 157.508L396.325 156.198L402.003 157.032L403.92 156.435L406.637 155.623L409.924 155.761L413.19 156.524L415.929 157.574L416.698 158.176L417.709 159.695L418.299 160.275L419.11 160.54L420.584 160.601L421.29 161.104L421.849 161.314L423.249 160.904L424.06 161.076L424.724 161.64L426.241 163.512L427.663 164.695L428.896 165.521L430.276 166.101L432.099 166.546L437.397 167.242L438.271 167.849L439.903 170.049L442.769 171.225L445.297 172.673L445.692 174.667L445.89 175.664L445.895 175.689L445.897 175.701L446.688 175.899L448.436 176.509L448.464 176.519L448.478 176.524L448.497 176.848L448.498 176.878L451.757 179.189L451.764 179.194L452.707 179.637L452.734 179.649L453.121 180.136L453.144 180.164L452.326 180.874L452.302 180.895L454.797 181.932L454.809 181.937L455.768 182.839L456.53 184.525L456.537 184.54L456.864 186.398L456.558 187.586L455.146 189.7L451.512 190.607L445.265 192.602L444.264 192.473L443.516 192.142L443.508 192.132L443.084 191.591L443.081 191.565L442.979 190.794L442.961 190.783L436.058 186.777L436.041 186.772L432.161 185.531L429.19 186.769L428.642 188.561L429.06 190.432L429.064 190.447L430.402 193.851L430.412 193.875L430.601 195.601L430.559 197.259L430.284 198.912L425.101 212.792L424.131 216.929L423.668 220.557L423.13 222.166L422.066 223.725L421.742 223.978L420.582 224.878L419.012 225.765L417.759 226.944L417.253 228.97L417.79 235.452L417.421 238.462L415.452 241.049L412.85 242.178L409.858 242.408L401.357 241.713L401.242 242.974L403.538 246.57L403.622 248.016L401.672 247.281L399.418 245.796L398.49 244.995L396.247 245.681L395.899 247.586L396.964 251.809L396.869 253.902L394.668 262.931L393.93 264.789L392.645 265.578L390.58 265.077L387.472 262.128L387.229 261.182L387.061 258.794L386.786 258.094L385.722 258.045L379.233 256.699L378.222 258.11L378.506 260.118L379.138 262.281L379.201 264.123L378.032 265.748L376.251 266.389L374.26 266.12L372.427 265.013L371.518 263.388L369.717 259.107L368.653 258.724L368.189 259.982L367.093 266.703L366.303 268.955L365.334 270.427L363.838 271.37L361.479 272.052L357.286 272.525L353.505 272.227L345.773 270.624L341.538 270.972L340.296 273.686L340.138 277.733L339.095 282.06L337.873 282.84L336.768 282.671L335.974 282.349L335.618 282.205L334.259 282.104L332.479 282.802L331.131 283.963L330.057 285.364L326.581 291.258L326.138 292.732L326.222 294.184L327.37 296.645L327.791 297.968L327.496 299.962L325.452 305.735L324.41 307.471L322.535 308.383L320.597 308.547L318.985 309.085L318.026 311.12L318.458 313.421L320.07 314.254L321.755 314.849L322.397 316.44L321.502 318.155L320.059 318.049L318.774 318.21L318.427 320.752L318.89 322.591L321.85 327.884L322.629 329.754L323.482 333.206L324.419 334.935L325.262 335.701L327.042 336.759L327.706 337.722L327.949 338.523L328.433 341.15L329.802 345.633L330.844 347.756L332.15 348.709L333.478 349.041L333.815 349.662L333.372 350.496L332.35 351.46L331.623 352.425L331.803 353.248L332.35 354.097L332.793 355.176L335.163 372.126L336.491 376.469L338.924 379.622L342.337 380.494L342.716 377.029L340.809 368.195L340.788 363.509L341.326 361.046L342.463 359.533L344.728 359.451L346.687 360.93L348.172 362.943L349.025 364.487L348.994 364.397L349.341 363.667L349.372 363.575L350.036 364.416L350.068 365.126L349.931 365.732L350.036 366.274L351.542 367.692L351.785 367.724L352.48 370.969L352.955 372.043L355.304 379.738L355.831 382.426L356.115 382.766L357.084 383.016L357.347 383.407L357.473 386.504L357.905 387.599L359.222 389.004L360.57 389.491L361.929 389.727L363.32 390.376L363.963 391.533L363.953 392.572L364.268 392.933L365.932 392.04L366.533 391.265L366.911 390.266L367.386 389.402L368.313 389.035L369.029 389.166L369.756 389.408L370.472 389.557L371.199 389.403L372.579 388.922L375.339 388.344L376.592 387.583L377.351 386.768L379.068 385.274L379.784 384.501L381.49 382.023L381.616 381.61L381.542 381.118L381.585 380.623L382.091 380.207L382.428 380.191L383.398 380.27L383.651 380.232L385.188 378.641L385.62 377.681L385.251 376.455L383.934 373.233L382.397 365.984L380.891 362.637L380.332 358.432L382.261 353.244L385.221 348.312L387.875 344.876L389.518 343.508L395.154 341.184L396.787 340.055L398.114 338.652L400.421 334.933L400.579 330.79L397.895 318.571L397.737 314.539L397.948 312.261L398.58 310.876L400.003 310.816L401.277 312.272L402.551 314.241L406.817 318.862L408.397 319.639L410.778 319.057L412.538 317.586L415.856 313.161L417.51 311.375L421.829 309.958L423.852 312.918L424.885 316.962L426.265 318.783L427.803 317.361L429.099 312.481L430.794 311.523L432.89 312.617L432.934 313.024L433.133 314.876L431.942 319.367L432.226 322.886L436.123 334.925L436.713 340.063L437.187 341.623L437.725 342.459L439.053 343.694L439.622 344.607L439.78 345.397L439.622 346.857L439.759 347.585L440.265 348.282L441.613 349.287L441.992 349.816L442.087 350.78L441.803 352.852L441.834 353.893L442.361 355.641L442.836 356.665L442.899 357.738L442.203 359.63L440.371 363.288L439.95 364.875L439.855 369.062L442.446 383.953L442.361 391.269L443.14 394.813L445.058 397.562L448.439 398.876L449.913 400.649L450.798 408.816L451.514 412.003L452.705 413.574L455.455 415.862L456.56 417.446L457.003 419.067L457.719 427.143L457.508 433.232L457.887 434.988L459.192 438.258L459.35 440.061L465.27 474.245L465.122 476.897L463.963 477.416L462.446 477.4L461.224 478.431L463.531 485.46L464.868 492.345L465.08 493.267L465.155 494.205ZM399.891 516.897L400.215 521.602L403.898 528.485L404.819 532.603L404.596 534.802L403.651 539.172L403.426 541.514L402.497 543.325L400.265 543.411L397.702 542.983L395.711 543.262V543.821L396.185 544.608L396.234 545.42L395.015 546.035L393.937 545.941L393.05 545.344L392.453 544.494L392.013 542.652L391.706 541.941L391.732 541.192L393.324 539.007L393.59 537.932L393.623 535.45L393.1 531.249L390.96 524.316L391.533 520.459L392.495 518.399L393.449 517.436L394.569 517.534L396.062 518.637L396.56 519.994L396.086 521.605L395.34 523.259L395.016 524.716L396.608 522.852L397.238 520.359L397.121 517.713L396.392 515.406L398.217 515.143L399.893 514.693L399.926 516.364L399.891 516.897ZM112.488 514.691L114.86 516.184L115.442 519.05L114.198 520.894L111.12 519.317L105.944 513.435L105.935 513.028L106.582 512.383L107.238 510.422L107.196 508.403L106.167 504.932L105.901 503.307L105.246 501.486L105.346 500.518L106.54 500.455L106.963 500.739L107.312 501.231L107.585 501.842L107.983 503.307L108.978 510.334L110.148 513.413L112.488 514.691ZM395.015 505.83L394.683 507.485L393.249 510.162L392.477 513.771L390.262 519.458L389.391 520.458L388.52 518.707L390.137 510.069L389.391 504.73L389.763 502.914L390.501 501.573L392.924 498.966L393.322 499.288L393.488 499.628L393.62 500.456L394.848 504.357L395.015 505.83ZM263.107 493.267V495.399L263.496 495.9L263.853 496.605L264.442 498.253L262.833 498.635L261.812 500.995L260.966 500.456H260.261L259.398 502.557L257.731 504.81L255.74 506.316L253.941 506.215V505.443L254.671 505.281L255.965 504.835L256.786 504.729L255.915 503.541L255.4 503.002L254.637 502.522L255.301 501.831L255.292 501.029L255.143 500.078L255.392 498.966L255.816 498.252L256.263 497.751L263.107 493.267ZM236.473 498.252L238.696 494.29L240.472 492.408L242.803 491.839L242.43 494.132L239.866 498.259L237.428 506.438L236.474 507.563L235.529 508.149L235.09 507.902V503.048L235.488 500.556L236.473 498.252ZM242.105 486.849L241.459 489.453L238.571 492.597L237.875 494.755H237.228L237.866 492.534L239.169 489.497L240.72 487.109L242.105 486.849ZM246.974 487.562L250.857 491.483L252.167 494.286L251.164 497.602L248.974 498.85L246.636 501.486L244.968 502.242L243.625 501.579L242.829 500.059L242.804 498.251L243.36 496.774L244.04 495.687L244.596 494.366L244.836 492.161L244.596 488.865L244.97 487.863L246.289 486.847L246.974 487.562ZM258.106 485.425L257.483 484.711L253.103 487.167L252.547 488.212H251.909L252.108 485.773L252.731 483.495L253.892 481.803L255.7 481.149L256.985 480.371L259.698 477.484L260.967 477.514L261.839 476.315L263.033 475.213L264.227 474.567L265.14 474.728L263.108 481.149L263.1 480.111L262.933 479.427L262.361 478.228L261.175 481.825L260.578 485.799L259.665 489.385L257.484 491.84L255.568 492.417L254.498 491.925L254.05 490.769L253.942 489.346L254.489 488.403L258.106 485.425ZM298.599 470.447L299.146 469.758L299.561 469.668L299.86 470.127L300.125 471.089V476.737L299.338 479.161L297.339 479.658L296.303 478.065L296.411 475.148L297.148 471.992L297.97 469.67L298.599 470.447ZM302.133 472.458L302.199 466.872L302.797 464.782L304.223 465.378L304.314 467.302L304.007 469.527L303.293 471.454L302.133 472.458ZM299.736 468.174L298.135 467.548L298.442 466.077L299.496 464.319L300.125 462.851L300.482 458.108L301.088 455.553L302.133 453.885L302.896 454.664L303.469 456.248L303.875 458.176L303.966 460.297L303.527 462.459L299.736 468.174ZM319.708 454.544L320.484 457.158L322.007 458.459L323.027 462.23L323.077 464.664L323.576 468.069L321.924 471.267L320.938 472.845L320.265 474.143L318.956 476.594L316.84 478.256L315.379 479.159L314.087 479.452L312.936 481.278L310.988 482.483L308.47 482.349L306.828 481.959L305.685 481.205L305.059 479.666L307.998 476.328L309.863 473.541L310.56 471.805L311.496 466.715L311.582 459.362L312.161 451.245L313.94 450.957L317.47 452.681L319.708 454.544ZM265.77 447.457L265.155 447.053L264.476 447.176L263.911 446.993L263.68 445.638L263.928 444.99L264.543 444.777L265.239 444.913L265.77 445.309L267.147 446.737L268.631 449.293L269.751 452.189L270 454.664L268.88 452.543L268.607 451.747L267.885 453.603L268.532 457.785L267.859 459.599L267.336 458.671L267.237 457.547L267.261 456.376L267.162 455.316H267.858L267.211 453.439L266.431 449.32L265.77 447.457ZM268.606 447.457L269.22 441.308L269.477 441.597L270 441.665L270.424 442.807L270.598 443.928L270.631 445.961L269.586 446.524L269.238 446.797L268.606 447.457ZM320.703 439.218L324.919 438.037L326.025 440.046L325.025 442.489L322.908 443.847L320.798 444.743L318.212 444.868L316.127 443.617L317.132 440.713L320.703 439.218ZM352.191 430.531L361.243 441.859L361.984 446.319L361.122 449.836L356.264 450.385L353.057 448.655L350.047 444.474L348.329 440.309L347.73 436.925L350.073 431.58L352.191 430.531ZM283.19 440.065L287.682 443.945L289.76 446.419L287.721 456.368L287.84 473.253L286.994 475.945L281.578 483.938L279.802 485.425L279.653 484.975L279.056 483.929L276.717 486.259L275.772 486.811L273.109 491.131L272.214 491.449L270.944 492.104L269.651 492.61L268.606 492.487L267.784 490.184L268.987 487.206L270.895 484.04L272.106 481.15L266.415 489.028L264.79 489.346L264.126 487.268L264.557 484.311L265.702 481.285L267.162 479.006L266.033 476.71L267.011 472.84L271.257 464.025L271.764 462.315L272.103 460.314L272.112 454.192L272.734 452.391L271.913 449.299L271.688 447.254L272.103 445.964V445.311L270.959 443.364L269.773 437.021L268.603 434.517L266.961 433.123L261.214 429.216L259.563 428.79L259.074 424.924L259.314 421.263L261.587 412.625L262.284 411.468L263.379 410.699L265.137 410.038L266.929 409.624L268.919 409.436L269.943 412.546L271.057 416.26L272.336 419.202L274.097 422.609L275.538 425.086L277.145 426.948L278.745 429.425L279.512 434.506L280.779 437.744L283.19 440.065ZM268.38 402.938L270.253 405.076L271.74 407.237L270.123 407.536L266.625 406.843L262.844 406.651L259.87 409.288L258.319 409.826L256.79 411.341L256.598 413.952L257.101 415.587L255.712 417.372L254.691 416.222L253.392 415.057L253.243 414.078L252.845 413.019L251.832 412.336L249.062 411.533L249.925 410.328L250.074 409.362L249.767 406.449L249.817 404.535L250.115 402.676L250.862 401.27L252.231 400.714L255.731 401.322L257.407 401.099L258.103 399.638L258.949 399.527L262.981 399.51L264.441 399.998L266.494 402.103L268.38 402.938ZM270.63 392.037L268.009 392.115L267.163 392.037L268.324 392.777L269.336 393.688L270.124 394.688L270.63 395.698L267.461 395.368L266.532 394.979L265.768 394.191L264.549 392.084L263.677 391.391L262.615 391.087L262.209 391.262L261.852 391.669L260.965 392.036L259.862 392.191L257.091 392.225L256.029 392.037L254.396 389.646L256.427 386.296L259.819 383.668L262.357 383.429L264.505 385.192L268.387 389.744L270.626 391.391V392.037H270.63ZM254.638 379.839L255.318 380.862L255.169 381.636L253.593 383.1L251.313 385.796L250.467 386.296L249.596 381.999L249.065 380.493L253.005 380.48L253.826 380.275L254.638 379.839ZM256.032 353.175L254.199 354.024L252.258 353.514L250.392 352.189L247.182 349.005L246.096 347.512L246.411 346.543L249.065 346.565L252.748 347.822L257.591 350.25L261.489 353.03L262.361 355.337L258.627 352.756L256.587 351.983L256.032 353.175Z" stroke="#BA8D46" stroke-opacity="0.25" stroke-linecap="round" stroke-linejoin="round"/>
</svg>
