<svg width="115" height="44" viewBox="0 0 115 44" fill="none" xmlns="http://www.w3.org/2000/svg">
<path d="M9.55571 6.68311L2 14.2388" stroke="#BA8D46" stroke-width="4.45674"/>
<path d="M14.7027 12.0483L3.36914 23.3818L8.18728 28.1999L13.0054 23.3818L8.51579 18.8922" stroke="#17494D" stroke-width="4.45674"/>
<path d="M32.6743 30.3233C31.5608 30.3233 30.564 30.1527 29.6839 29.8114C28.8039 29.4522 28.0585 28.9493 27.4478 28.3027C26.8551 27.6382 26.3972 26.8479 26.0739 25.932C25.7685 25.016 25.6159 23.9922 25.6159 22.8607C25.6159 21.5496 25.8134 20.3104 26.2086 19.1429C26.6217 17.9575 27.1425 16.8709 27.7711 15.8831C28.4177 14.8773 29.1361 13.9793 29.9264 13.1891C30.7346 12.3988 31.5428 11.7343 32.351 11.1955H37.9277C36.7783 12.0216 35.7456 12.8119 34.8296 13.5662C33.9136 14.3026 33.1144 15.048 32.4319 15.8023C31.7673 16.5566 31.2105 17.3289 30.7615 18.1192C30.3305 18.8915 30.0252 19.7266 29.8456 20.6247L30.088 20.7055C30.2497 20.3463 30.4383 19.9961 30.6538 19.6548C30.8873 19.3136 31.1656 19.0172 31.4889 18.7658C31.8302 18.4964 32.2253 18.2808 32.6743 18.1192C33.1233 17.9575 33.6442 17.8767 34.2369 17.8767C35.0092 17.8767 35.7276 18.0204 36.3921 18.3078C37.0746 18.5772 37.6583 18.9633 38.1433 19.4662C38.6462 19.9691 39.0323 20.5887 39.3017 21.3251C39.5891 22.0435 39.7328 22.8428 39.7328 23.7228C39.7328 24.6927 39.5621 25.5817 39.2209 26.39C38.8976 27.1982 38.4217 27.8986 37.793 28.4913C37.1824 29.0661 36.446 29.5151 35.5839 29.8384C34.7218 30.1616 33.7519 30.3233 32.6743 30.3233ZM32.6743 27.1712C33.5723 27.1712 34.2728 26.9288 34.7757 26.4438C35.2786 25.9409 35.53 25.2315 35.53 24.3155V23.8306C35.53 22.9146 35.2786 22.2142 34.7757 21.7292C34.2728 21.2263 33.5723 20.9749 32.6743 20.9749C31.7763 20.9749 31.0758 21.2263 30.573 21.7292C30.0701 22.2142 29.8186 22.9146 29.8186 23.8306V24.3155C29.8186 25.2315 30.0701 25.9409 30.573 26.4438C31.0758 26.9288 31.7763 27.1712 32.6743 27.1712ZM47.2926 30.3233C45.9276 30.3233 44.7781 30.1078 43.8442 29.6767C42.9102 29.2277 42.0751 28.5991 41.3387 27.7909L43.6825 25.4201C44.1854 25.9769 44.7422 26.4169 45.3528 26.7402C45.9635 27.0635 46.655 27.2251 47.4273 27.2251C48.2175 27.2251 48.7653 27.1084 49.0706 26.8749C49.376 26.6234 49.5286 26.2912 49.5286 25.8781C49.5286 25.2136 49.0527 24.8184 48.1008 24.6927L46.5652 24.5041C43.3862 24.109 41.7967 22.6542 41.7967 20.1397C41.7967 19.4572 41.9224 18.8376 42.1738 18.2808C42.4432 17.7061 42.8114 17.2212 43.2784 16.826C43.7633 16.413 44.3381 16.0986 45.0026 15.8831C45.6851 15.6496 46.4484 15.5329 47.2926 15.5329C48.0289 15.5329 48.6755 15.5868 49.2323 15.6945C49.807 15.7843 50.3099 15.928 50.741 16.1256C51.19 16.3052 51.5941 16.5387 51.9533 16.826C52.3304 17.0954 52.6986 17.4008 53.0578 17.742L50.7679 20.0859C50.3189 19.6368 49.807 19.2866 49.2323 19.0352C48.6755 18.7658 48.1008 18.6311 47.5081 18.6311C46.8256 18.6311 46.3406 18.7388 46.0533 18.9543C45.7659 19.1699 45.6222 19.4572 45.6222 19.8164C45.6222 20.1936 45.721 20.49 45.9186 20.7055C46.1341 20.9031 46.5292 21.0467 47.104 21.1365L48.6935 21.3521C51.8006 21.7652 53.3542 23.184 53.3542 25.6087C53.3542 26.2912 53.2105 26.9198 52.9231 27.4945C52.6358 28.0693 52.2227 28.5721 51.6839 29.0032C51.163 29.4163 50.5254 29.7396 49.7711 29.9731C49.0347 30.2065 48.2085 30.3233 47.2926 30.3233ZM61.9727 30.3233C60.895 30.3233 59.9342 30.1527 59.09 29.8114C58.2459 29.4522 57.5275 28.9583 56.9348 28.3297C56.36 27.6831 55.92 26.9018 55.6147 25.9858C55.3273 25.0699 55.1836 24.0461 55.1836 22.9146C55.1836 21.8011 55.3273 20.7953 55.6147 19.8973C55.902 18.9813 56.3241 18.2 56.8809 17.5534C57.4556 16.9069 58.1561 16.413 58.9823 16.0717C59.8084 15.7125 60.7514 15.5329 61.811 15.5329C62.9784 15.5329 63.9752 15.7305 64.8014 16.1256C65.6456 16.5207 66.3281 17.0505 66.8489 17.7151C67.3877 18.3796 67.7739 19.1519 68.0074 20.032C68.2588 20.8941 68.3845 21.8011 68.3845 22.753V23.9384H59.3055V24.1539C59.3055 25.0878 59.557 25.8332 60.0599 26.39C60.5628 26.9288 61.353 27.1982 62.4307 27.1982C63.2568 27.1982 63.9303 27.0365 64.4512 26.7132C64.972 26.372 65.457 25.9679 65.906 25.5009L67.8996 27.9795C67.271 28.7158 66.4448 29.2906 65.4211 29.7037C64.4153 30.1167 63.2658 30.3233 61.9727 30.3233ZM61.8918 18.4694C61.0836 18.4694 60.446 18.7388 59.9791 19.2776C59.53 19.7985 59.3055 20.4989 59.3055 21.379V21.5945H64.2626V21.3521C64.2626 20.49 64.065 19.7985 63.6699 19.2776C63.2928 18.7388 62.7001 18.4694 61.8918 18.4694ZM71.2005 30V15.8562H75.1877V18.2539H75.3493C75.6008 17.5175 76.0408 16.8799 76.6694 16.3411C77.298 15.8023 78.1691 15.5329 79.2826 15.5329C80.7374 15.5329 81.833 16.0178 82.5694 16.9877C83.3237 17.9575 83.7009 19.3405 83.7009 21.1365V30H79.7137V21.4598C79.7137 20.5438 79.57 19.8703 79.2826 19.4393C78.9953 18.9903 78.4834 18.7658 77.747 18.7658C77.4237 18.7658 77.1094 18.8107 76.8041 18.9005C76.4988 18.9723 76.2204 19.098 75.9689 19.2776C75.7355 19.4572 75.5469 19.6817 75.4032 19.9512C75.2595 20.2026 75.1877 20.4989 75.1877 20.8402V30H71.2005ZM92.0445 30.3233C90.6795 30.3233 89.53 30.1078 88.5961 29.6767C87.6621 29.2277 86.827 28.5991 86.0906 27.7909L88.4344 25.4201C88.9373 25.9769 89.4941 26.4169 90.1048 26.7402C90.7154 27.0635 91.4069 27.2251 92.1792 27.2251C92.9694 27.2251 93.5172 27.1084 93.8226 26.8749C94.1279 26.6234 94.2806 26.2912 94.2806 25.8781C94.2806 25.2136 93.8046 24.8184 92.8527 24.6927L91.3171 24.5041C88.1381 24.109 86.5486 22.6542 86.5486 20.1397C86.5486 19.4572 86.6743 18.8376 86.9258 18.2808C87.1952 17.7061 87.5634 17.2212 88.0303 16.826C88.5153 16.413 89.09 16.0986 89.7545 15.8831C90.437 15.6496 91.2003 15.5329 92.0445 15.5329C92.7809 15.5329 93.4274 15.5868 93.9842 15.6945C94.5589 15.7843 95.0618 15.928 95.4929 16.1256C95.9419 16.3052 96.346 16.5387 96.7052 16.826C97.0824 17.0954 97.4506 17.4008 97.8098 17.742L95.5198 20.0859C95.0708 19.6368 94.5589 19.2866 93.9842 19.0352C93.4274 18.7658 92.8527 18.6311 92.26 18.6311C91.5775 18.6311 91.0926 18.7388 90.8052 18.9543C90.5179 19.1699 90.3742 19.4572 90.3742 19.8164C90.3742 20.1936 90.473 20.49 90.6705 20.7055C90.886 20.9031 91.2812 21.0467 91.8559 21.1365L93.4454 21.3521C96.5526 21.7652 98.1061 23.184 98.1061 25.6087C98.1061 26.2912 97.9624 26.9198 97.6751 27.4945C97.3877 28.0693 96.9746 28.5721 96.4358 29.0032C95.915 29.4163 95.2774 29.7396 94.523 29.9731C93.7866 30.2065 92.9605 30.3233 92.0445 30.3233ZM106.725 30.3233C105.647 30.3233 104.686 30.1527 103.842 29.8114C102.998 29.4522 102.279 28.9583 101.687 28.3297C101.112 27.6831 100.672 26.9018 100.367 25.9858C100.079 25.0699 99.9356 24.0461 99.9356 22.9146C99.9356 21.8011 100.079 20.7953 100.367 19.8973C100.654 18.9813 101.076 18.2 101.633 17.5534C102.208 16.9069 102.908 16.413 103.734 16.0717C104.56 15.7125 105.503 15.5329 106.563 15.5329C107.73 15.5329 108.727 15.7305 109.553 16.1256C110.397 16.5207 111.08 17.0505 111.601 17.7151C112.14 18.3796 112.526 19.1519 112.759 20.032C113.011 20.8941 113.136 21.8011 113.136 22.753V23.9384H104.057V24.1539C104.057 25.0878 104.309 25.8332 104.812 26.39C105.315 26.9288 106.105 27.1982 107.183 27.1982C108.009 27.1982 108.682 27.0365 109.203 26.7132C109.724 26.372 110.209 25.9679 110.658 25.5009L112.652 27.9795C112.023 28.7158 111.197 29.2906 110.173 29.7037C109.167 30.1167 108.018 30.3233 106.725 30.3233ZM106.644 18.4694C105.836 18.4694 105.198 18.7388 104.731 19.2776C104.282 19.7985 104.057 20.4989 104.057 21.379V21.5945H109.015V21.3521C109.015 20.49 108.817 19.7985 108.422 19.2776C108.045 18.7388 107.452 18.4694 106.644 18.4694Z" fill="#17494D"/>
</svg>
