<svg width="1200" height="603" viewBox="0 0 1200 603" fill="none" xmlns="http://www.w3.org/2000/svg">
<path d="M17.7094 -32V635M37.094 -32V635M56.4787 -32V635M75.8634 -32V635M95.2481 -32V635M114.633 -32V635M134.017 -32V635M153.402 -32V635M172.787 -32V635M192.172 -32V635M211.556 -32V635M230.941 -32V635M250.326 -32V635M269.71 -32V635M289.095 -32V635M308.48 -32V635M327.864 -32V635M347.249 -32V635M366.634 -32V635M386.018 -32V635M405.403 -32V635M424.788 -32V635M444.173 -32V635M463.557 -32V635M482.942 -32V635M502.327 -32V635M521.711 -32V635M541.096 -32V635M560.481 -32V635M579.865 -32V635M599.25 -32V635M618.635 -32V635M638.019 -32V635M657.404 -32V635M676.789 -32V635M696.174 -32V635M715.558 -32V635M734.943 -32V635M754.328 -32V635M773.712 -32V635M793.097 -32V635M812.482 -32V635M831.866 -32V635M851.251 -32V635M870.636 -32V635M890.02 -32V635M909.405 -32V635M928.79 -32V635M948.175 -32V635M967.559 -32V635M986.944 -32V635M1006.33 -32V635M1025.71 -32V635M1045.1 -32V635M1064.48 -32V635M1083.87 -32V635M1103.25 -32V635M1122.64 -32V635M1142.02 -32V635M1161.41 -32V635M1180.79 -32V635M-1 -23.9713H1199.6M-1 -4.82593H1199.6M-1 14.3194H1199.6M-1 33.4648H1199.6M-1 52.6102H1199.6M-1 71.7556H1199.6M-1 90.9009H1199.6M-1 110.046H1199.6M-1 129.192H1199.6M-1 148.337H1199.6M-1 167.482H1199.6M-1 186.628H1199.6M-1 205.773H1199.6M-1 224.919H1199.6M-1 244.064H1199.6M-1 263.209H1199.6M-1 282.355H1199.6M-1 301.5H1199.6M-1 320.645H1199.6M-1 339.791H1199.6M-1 358.936H1199.6M-1 378.081H1199.6M-1 397.227H1199.6M-1 416.372H1199.6M-1 435.518H1199.6M-1 454.663H1199.6M-1 473.808H1199.6M-1 492.954H1199.6M-1 512.099H1199.6M-1 531.244H1199.6M-1 550.39H1199.6M-1 569.535H1199.6M-1 588.681H1199.6M-1 607.826H1199.6M-1 626.971H1199.6" stroke="url(#paint0_linear_12996_19161)" stroke-opacity="0.25" stroke-width="2" stroke-miterlimit="10"/>
<defs>
<linearGradient id="paint0_linear_12996_19161" x1="599.3" y1="-32" x2="599.3" y2="635" gradientUnits="userSpaceOnUse">
<stop stop-color="#E5B442" stop-opacity="0"/>
<stop offset="0.5" stop-color="#EEA23E" stop-opacity="0.35"/>
<stop offset="1" stop-color="#E5B442" stop-opacity="0"/>
</linearGradient>
</defs>
</svg>
